<?xml version="1.0" encoding="UTF-8"?><svg id="a" xmlns="http://www.w3.org/2000/svg" viewBox="0 0 135 50"><defs><style>.b{fill:#ffffe3;}.c{fill:#f66538;}</style></defs><path class="b" d="M118.26,50H16.74c-5.31,0-2.13-4.86-2.75-10.86C13.71,29.71,.3,20.29,.02,10.86-.6,4.86,11.29,0,16.74,0H118.26c5.31,0,2.13,4.86,2.75,10.86,.28,9.43,13.69,18.85,13.96,28.28,.62,6-11.27,10.86-16.71,10.86Z"/><g><path class="c" d="M32.5,31.69l-.46-2.78-2.98,.12-.76,3.76-2.8-.24,3.58-14.5,3.7,.32,2.62,13.56-2.9-.24Zm-1.76-11.02l-1.26,6.22,2.24-.08-.98-6.14Z"/><path class="c" d="M41,26.77c.03-.19,.04-.43,.04-.72s-.06-.59-.18-.9c-.12-.31-.27-.46-.46-.46-.37,0-.64,.43-.81,1.29-.17,.86-.25,1.65-.25,2.37,0,1.21,.25,1.82,.74,1.82,.4,0,.97-.7,1.7-2.1l1.48,1.06c-.36,.97-.81,1.75-1.35,2.32s-1.19,.86-1.95,.86-1.44-.3-2.05-.9c-.61-.6-.91-1.51-.91-2.74,0-1.31,.21-2.61,.64-3.9,.24-.71,.6-1.29,1.07-1.74,.47-.45,1.08-.68,1.81-.68s1.34,.37,1.83,1.12c.49,.75,.73,1.57,.73,2.48,0,.39-.06,.72-.18,1l-1.9-.18Z"/><path class="c" d="M49.74,23.53v1.9c-.64,0-1.13,0-1.48,.02-.04,1.33-.06,3.57-.06,6.72l-2.36-.22c0-2.33,.02-4.45,.06-6.34-.2,0-.58,.03-1.14,.1l-.3-1.64c.32-.07,.82-.15,1.5-.26,.03-.99,.08-2.43,.16-4.32l2.38,.22c-.08,1.32-.14,2.6-.18,3.84,.33-.01,.81-.02,1.42-.02Z"/><path class="c" d="M51.92,18.83l2.24,.26-.2,2.24-2.24-.28,.2-2.22Zm-.16,3.52l2.28,.22v9.6l-2.28-.22v-9.6Z"/><path class="c" d="M60.46,32.21l-2.56-.24c-.99-3.97-1.59-7.09-1.8-9.34l2.28,.2c.23,2.45,.54,4.65,.94,6.6,.55-2,1.13-4.51,1.74-7.54l2.16,.18c-.76,3.51-1.68,6.89-2.76,10.14Z"/><path class="c" d="M65.16,18.83l2.24,.26-.2,2.24-2.24-.28,.2-2.22Zm-.16,3.52l2.28,.22v9.6l-2.28-.22v-9.6Z"/><path class="c" d="M73.94,22.83l.02-2.48c0-.92-.02-1.97-.06-3.14l2.34,.2c.03,.95,.04,2.66,.04,5.15s-.11,5.69-.32,9.61l-1.78-.16c-.04-.53-.08-1.16-.12-1.88-.57,1.15-1.19,1.72-1.86,1.72-1.03,0-1.74-.32-2.14-.96-.4-.64-.6-1.57-.6-2.79s.26-2.48,.79-3.79c.53-1.31,1.12-1.96,1.79-1.96,.6,0,1.23,.16,1.9,.48Zm.06,1.86c-.33-.25-.66-.38-.99-.38s-.61,.43-.85,1.29c-.24,.86-.36,1.76-.36,2.69s.23,1.4,.68,1.4c.17,0,.41-.29,.7-.87,.29-.58,.56-1.32,.8-2.21l.02-1.92Z"/><path class="c" d="M79.8,23.34c.56-.73,1.29-1.09,2.2-1.09s1.58,.38,2.01,1.13c.43,.75,.65,1.82,.65,3.21s-.08,3.3-.24,5.74l-1.68-.14-.16-.64c-.63,.36-1.27,.54-1.92,.54s-1.19-.22-1.62-.65c-.43-.43-.64-1.06-.64-1.87s.4-1.51,1.21-2.1c.81-.59,1.74-.89,2.79-.92v-.54c0-1.05-.25-1.58-.76-1.58-.25,0-.48,.18-.69,.53-.21,.35-.36,.76-.45,1.21l-1.84-.18c.2-1.04,.58-1.92,1.14-2.65Zm.64,6.35c0,.43,.25,.64,.76,.64,.35,0,.71-.08,1.1-.24l.04-1.68c-.63,.05-1.1,.21-1.42,.47-.32,.26-.48,.53-.48,.81Z"/><path class="c" d="M91.14,22.83l.02-2.48c0-.92-.02-1.97-.06-3.14l2.34,.2c.03,.95,.04,2.66,.04,5.15s-.11,5.69-.32,9.61l-1.78-.16c-.04-.53-.08-1.16-.12-1.88-.57,1.15-1.19,1.72-1.86,1.72-1.03,0-1.74-.32-2.14-.96-.4-.64-.6-1.57-.6-2.79s.26-2.48,.79-3.79c.53-1.31,1.12-1.96,1.79-1.96,.6,0,1.23,.16,1.9,.48Zm.06,1.86c-.33-.25-.66-.38-.99-.38s-.61,.43-.85,1.29c-.24,.86-.36,1.76-.36,2.69s.23,1.4,.68,1.4c.17,0,.41-.29,.7-.87,.29-.58,.56-1.32,.8-2.21l.02-1.92Z"/><path class="c" d="M98.62,30.45c.51,0,1.05-.49,1.62-1.46l1.52,.9c-.25,.44-.5,.81-.73,1.12s-.58,.6-1.05,.88c-.47,.28-.99,.42-1.56,.42-.84,0-1.55-.36-2.12-1.07-.57-.71-.86-1.68-.86-2.89,0-1.39,.25-2.68,.74-3.88,.27-.63,.65-1.14,1.15-1.53,.5-.39,1.01-.59,1.54-.59s.95,.08,1.27,.25c.32,.17,.58,.35,.77,.56,.19,.21,.36,.51,.51,.91,.15,.4,.25,.73,.31,.98,.06,.25,.11,.62,.15,1.1,.05,.64,.08,1.22,.08,1.74-1.07,.29-2.45,.56-4.14,.8,.04,.53,.13,.96,.28,1.28,.15,.32,.32,.48,.52,.48Zm.44-6.14c-.29,0-.56,.29-.79,.88-.23,.59-.37,1.27-.41,2.04,.71-.15,1.32-.29,1.84-.42,0-1.67-.21-2.5-.64-2.5Z"/><path class="c" d="M107.62,25.59c0-.8-.2-1.2-.6-1.2-.2,0-.38,.1-.55,.29s-.25,.45-.25,.78,.06,.6,.19,.81c.13,.21,.36,.42,.7,.63,.34,.21,.61,.37,.8,.5,.19,.13,.42,.3,.69,.53,.55,.48,.82,1.1,.82,1.85s-.28,1.36-.85,1.83c-.57,.47-1.2,.7-1.91,.7s-1.34-.19-1.91-.57c-.57-.38-1.02-.86-1.37-1.43l1.08-1.22c.53,.92,1.09,1.38,1.68,1.38,.2,0,.37-.06,.52-.17,.15-.11,.22-.27,.22-.47,0-.43-.31-.82-.92-1.18-.65-.36-1.17-.76-1.54-1.2-.37-.44-.56-1.06-.56-1.87s.33-1.53,1-2.18c.67-.65,1.38-.97,2.15-.97s1.37,.26,1.82,.79c.45,.53,.67,1.24,.67,2.13,0,.36-.04,.75-.12,1.16l-1.82-.16c.04-.31,.06-.56,.06-.76Z"/></g></svg>