<?xml version="1.0" encoding="UTF-8"?><svg id="Capa_1" xmlns="http://www.w3.org/2000/svg" viewBox="0 0 210 60"><defs><style>.cls-1{fill:#ffffe3;}.cls-2{fill:#07c7b0;}</style></defs><path class="cls-2" d="M185.64,55.92c-53.76-2.3-107.51,5.97-161.27,3.67C10.91,59.05,0,47.66,0,35.21v-10.43C0,12.33,10.91,3.53,24.36,4.08,78.12,6.38,131.88-1.89,185.64,.41c13.46,.55,24.36,11.93,24.36,24.38v10.43c0,12.45-10.91,21.25-24.36,20.71Z"/><g><path class="cls-1" d="M103.09,37.17c-.05-2.11-.08-4.1-.08-5.98s.11-4.33,.32-7.34c2.28-.35,4.51-.52,6.68-.52v2.46c-1.51,0-2.91,.05-4.2,.14-.05,1.49-.09,2.64-.1,3.44,1.01-.15,2.21-.23,3.6-.26l.38,2.2c-.89,.01-2.23,.11-4.02,.3,0,1.6,0,2.75,.02,3.46,1.16-.09,2.55-.29,4.16-.6l.34,2.2c-1.13,.52-2.47,.78-4.02,.78l-3.08-.28Z"/><path class="cls-1" d="M111.21,31.61l3.88-.18c.4,0,.77,.02,1.1,.06l.08,2.16c-.4-.04-.79-.06-1.18-.06l-3.64,.18-.24-2.16Z"/><path class="cls-1" d="M122.43,28.17c.81,0,1.43,.28,1.86,.84,.69-1.01,1.38-1.52,2.06-1.52,1.85,0,2.78,1.39,2.78,4.18,0,1.57-.13,3.48-.4,5.72l-2.32-.2c.25-2.49,.38-4.39,.38-5.7s-.21-1.96-.64-1.96c-.19,0-.41,.3-.66,.9-.25,.6-.42,1.27-.5,2-.03,1.67-.08,3.15-.16,4.46l-2.34-.22c.11-1.88,.16-3.43,.16-4.64s-.17-1.82-.5-1.82c-.21,0-.49,.37-.83,1.11s-.58,1.52-.73,2.33c.01,1.23,.07,2.49,.18,3.8l-2.34-.22c-.15-1.88-.22-3.59-.22-5.14s.04-2.99,.12-4.34l1.66,.12c.08,.36,.19,1.01,.34,1.96,.71-1.11,1.41-1.66,2.1-1.66Z"/><path class="cls-1" d="M132.01,28.54c.56-.73,1.29-1.09,2.2-1.09s1.58,.38,2.01,1.13c.43,.75,.65,1.82,.65,3.21s-.08,3.3-.24,5.74l-1.68-.14-.16-.64c-.63,.36-1.27,.54-1.92,.54s-1.19-.22-1.62-.65c-.43-.43-.64-1.06-.64-1.87s.4-1.51,1.21-2.1c.81-.59,1.74-.89,2.79-.92v-.54c0-1.05-.25-1.58-.76-1.58-.25,0-.48,.18-.69,.53s-.36,.76-.45,1.21l-1.84-.18c.2-1.04,.58-1.92,1.14-2.65Zm.64,6.35c0,.43,.25,.64,.76,.64,.35,0,.71-.08,1.1-.24l.04-1.68c-.63,.05-1.1,.21-1.42,.47-.32,.26-.48,.53-.48,.81Z"/><path class="cls-1" d="M139.29,24.03l2.24,.26-.2,2.24-2.24-.28,.2-2.22Zm-.16,3.52l2.28,.22v9.6l-2.28-.22v-9.6Z"/><path class="cls-1" d="M146.39,22.65c-.2,3.37-.3,6.41-.3,9.12s.03,4.61,.1,5.7l-2.36-.22c-.05-1.39-.08-3.36-.08-5.91s.1-5.51,.3-8.87l2.34,.18Z"/></g><path class="cls-1" d="M74.76,14.42h-21.73c-2.6,0-4.71,2.36-4.71,5.26v20.63c0,2.9,2.12,5.27,4.71,5.27h21.73c2.61,0,4.72-2.37,4.72-5.27V19.68c0-2.9-2.12-5.26-4.72-5.26Zm-21.79,2.77h21.86l-10.93,10.95-10.93-10.95Zm24.07,23.12c0,1.37-1.03,2.49-2.28,2.49h-21.73c-1.25,0-2.27-1.12-2.27-2.49V19.68c0-.3,.05-.59,.14-.86l13,13.02,12.99-13.03c.1,.28,.15,.57,.15,.87v20.63Z"/></svg>