<?xml version="1.0" encoding="UTF-8"?><svg id="Capa_1" xmlns="http://www.w3.org/2000/svg" viewBox="0 0 210 60"><defs><style>.cls-1{fill:#ffffe3;}.cls-2{fill:#07c7b0;}</style></defs><path class="cls-2" d="M185.64,55.92c-53.76-2.3-107.51,5.97-161.27,3.67C10.91,59.05,0,47.66,0,35.21v-10.43C0,12.33,10.91,3.53,24.36,4.08,78.12,6.38,131.88-1.89,185.64,.41c13.46,.55,24.36,11.93,24.36,24.38v10.43c0,12.45-10.91,21.25-24.36,20.71Z"/><g><path class="cls-1" d="M110.01,23.31v2.46c-1.49,0-2.89,.05-4.2,.14-.03,.39-.05,1.07-.07,2.05-.02,.98-.04,1.58-.05,1.81,1.49-.2,2.69-.3,3.6-.3l.4,2.2c-1.49,.04-2.83,.13-4.02,.28,0,2.08,.03,3.91,.08,5.5l-2.7-.3c-.03-2.16-.04-4.17-.04-6.02s.11-4.29,.32-7.3c2.28-.35,4.51-.52,6.68-.52Z"/><path class="cls-1" d="M111.73,28.52c.56-.73,1.29-1.09,2.2-1.09s1.58,.38,2.01,1.13c.43,.75,.65,1.82,.65,3.21s-.08,3.3-.24,5.74l-1.68-.14-.16-.64c-.63,.36-1.27,.54-1.92,.54s-1.19-.22-1.62-.65c-.43-.43-.64-1.06-.64-1.87s.4-1.51,1.21-2.1c.81-.59,1.74-.89,2.79-.92v-.54c0-1.05-.25-1.58-.76-1.58-.25,0-.48,.18-.69,.53-.21,.35-.36,.76-.45,1.21l-1.84-.18c.2-1.04,.58-1.92,1.14-2.65Zm.64,6.35c0,.43,.25,.64,.76,.64,.35,0,.71-.08,1.1-.24l.04-1.68c-.63,.05-1.1,.21-1.42,.47s-.48,.53-.48,.81Z"/><path class="cls-1" d="M122.11,31.95c.03-.19,.04-.43,.04-.72s-.06-.59-.18-.9c-.12-.31-.27-.46-.46-.46-.37,0-.64,.43-.81,1.29-.17,.86-.25,1.65-.25,2.37,0,1.21,.25,1.82,.74,1.82,.4,0,.97-.7,1.7-2.1l1.48,1.06c-.36,.97-.81,1.75-1.35,2.32s-1.19,.86-1.95,.86-1.44-.3-2.05-.9c-.61-.6-.91-1.51-.91-2.74,0-1.31,.21-2.61,.64-3.9,.24-.71,.6-1.29,1.07-1.74s1.08-.68,1.81-.68,1.34,.37,1.83,1.12c.49,.75,.73,1.57,.73,2.48,0,.39-.06,.72-.18,1l-1.9-.18Z"/><path class="cls-1" d="M128.23,35.63c.51,0,1.05-.49,1.62-1.46l1.52,.9c-.25,.44-.5,.81-.73,1.12s-.58,.6-1.05,.88c-.47,.28-.99,.42-1.56,.42-.84,0-1.55-.36-2.12-1.07-.57-.71-.86-1.68-.86-2.89,0-1.39,.25-2.68,.74-3.88,.27-.63,.65-1.14,1.15-1.53,.5-.39,1.01-.59,1.54-.59s.95,.08,1.27,.25c.32,.17,.58,.35,.77,.56s.36,.51,.51,.91c.15,.4,.25,.73,.31,.98,.06,.25,.11,.62,.15,1.1,.05,.64,.08,1.22,.08,1.74-1.07,.29-2.45,.56-4.14,.8,.04,.53,.13,.96,.28,1.28,.15,.32,.32,.48,.52,.48Zm.44-6.14c-.29,0-.56,.29-.79,.88-.23,.59-.37,1.27-.41,2.04,.71-.15,1.32-.29,1.84-.42,0-1.67-.21-2.5-.64-2.5Z"/><path class="cls-1" d="M137.99,27.65c.64,0,1.12,.35,1.43,1.06,.31,.71,.47,1.54,.47,2.51s-.1,1.92-.31,2.87c-.21,.95-.53,1.75-.98,2.41-.45,.66-.96,.99-1.53,.99-.84,0-1.53-.37-2.08-1.12,0,.19,.01,.45,.04,.8l-1.76-.18c-.08-1.6-.12-3.75-.12-6.45s.07-5.41,.22-8.13l2.28,.2c-.16,2.63-.24,5.01-.24,7.16,.89-1.41,1.75-2.12,2.58-2.12Zm-2.58,5.54l.02,1.56c.16,.23,.3,.38,.42,.47s.3,.13,.54,.13c.33,0,.63-.37,.88-1.11,.25-.74,.38-1.44,.38-2.11s-.04-1.15-.11-1.44c-.07-.29-.23-.44-.47-.44-.51,0-1.06,.98-1.66,2.94Z"/><path class="cls-1" d="M140.99,33.29c0-1.24,.25-2.45,.76-3.64,.27-.6,.64-1.09,1.13-1.47,.49-.38,1.03-.57,1.63-.57s1.12,.14,1.55,.41c.43,.27,.76,.64,.99,1.09,.44,.89,.66,1.87,.66,2.92,0,1.45-.3,2.74-.89,3.87-.59,1.13-1.42,1.69-2.49,1.69-2.23,0-3.34-1.43-3.34-4.3Zm2.34,.18c0,1.51,.33,2.26,1,2.26,.29,0,.54-.42,.74-1.27s.3-1.66,.3-2.43c0-1.71-.28-2.56-.84-2.56-.36,0-.65,.46-.87,1.37-.22,.91-.33,1.79-.33,2.63Z"/><path class="cls-1" d="M148.35,33.29c0-1.24,.25-2.45,.76-3.64,.27-.6,.64-1.09,1.13-1.47s1.03-.57,1.63-.57,1.12,.14,1.55,.41c.43,.27,.76,.64,.99,1.09,.44,.89,.66,1.87,.66,2.92,0,1.45-.3,2.74-.89,3.87-.59,1.13-1.42,1.69-2.49,1.69-2.23,0-3.34-1.43-3.34-4.3Zm2.34,.18c0,1.51,.33,2.26,1,2.26,.29,0,.54-.42,.74-1.27,.2-.85,.3-1.66,.3-2.43,0-1.71-.28-2.56-.84-2.56-.36,0-.65,.46-.87,1.37s-.33,1.79-.33,2.63Z"/><path class="cls-1" d="M156.49,37.23c-.05-1.39-.08-3.44-.08-6.16s.1-5.59,.3-8.62l2.34,.18c-.2,3.27-.3,6.41-.3,9.44,1.39-1.69,2.43-3.34,3.12-4.94l1.6,1.4c-.6,1.4-1.4,2.79-2.4,4.16,1.04,1.21,1.87,2.35,2.48,3.4l-1.52,1.44c-.72-1.12-1.81-2.45-3.28-3.98,0,1.48,.03,2.78,.08,3.9l-2.34-.22Z"/></g><path class="cls-1" d="M63.75,14.36c-8.62,0-15.64,7.02-15.64,15.64,0,7.75,5.55,14.25,13.19,15.44,.8,.12,1.62,.19,2.45,.19s1.64-.07,2.44-.19c7.65-1.2,13.19-7.69,13.19-15.44,0-8.62-7.01-15.64-15.63-15.64Zm2.25,28.61v-8.81h3.36l.64-4.16h-3.99v-2.7c0-1.14,.56-2.25,2.35-2.25h1.82v-3.54s-1.65-.28-3.22-.28c-3.29,0-5.44,1.99-5.44,5.6v3.17h-3.66v4.16h3.66v8.81c-6.34-1.09-10.91-6.51-10.91-12.97,0-7.27,5.91-13.17,13.17-13.17s13.16,5.9,13.16,13.17c0,6.46-4.58,11.87-10.91,12.97Z"/></svg>