<?xml version="1.0" encoding="UTF-8"?><svg id="Capa_1" xmlns="http://www.w3.org/2000/svg" viewBox="0 0 210 60"><defs><style>.cls-1{fill:#ffffe3;}.cls-2{fill:#07c7b0;}</style></defs><path class="cls-2" d="M185.64,55.92c-53.76-2.3-107.51,5.97-161.27,3.67C10.91,59.05,0,47.66,0,35.21v-10.43C0,12.33,10.91,3.53,24.36,4.08,78.12,6.38,131.88-1.89,185.64,.41c13.46,.55,24.36,11.93,24.36,24.38v10.43c0,12.45-10.91,21.25-24.36,20.71Z"/><g><path class="cls-1" d="M106.25,20.78c-.12,2.11-.18,4.48-.18,7.12s.09,5.05,.26,7.22l-2.7-.24c-.17-2.72-.26-5.18-.26-7.37s.06-4.52,.18-6.97l2.7,.24Z"/><path class="cls-1" d="M112.51,25.1c1.76,0,2.64,1.47,2.64,4.4,0,1.55-.09,3.19-.26,4.92l-2.34-.22c.15-1.52,.22-3.06,.22-4.61s-.22-2.33-.66-2.33c-.21,0-.49,.54-.82,1.61-.33,1.07-.54,2.12-.62,3.15,.03,.55,.08,1.53,.16,2.96l-2.34-.22c-.15-1.88-.22-3.53-.22-4.96s.04-2.71,.12-3.84l1.48,.16c.03,.11,.13,.54,.3,1.3,.77-1.55,1.55-2.32,2.34-2.32Z"/><path class="cls-1" d="M120.59,28.32c0-.8-.2-1.2-.6-1.2-.2,0-.38,.1-.55,.29-.17,.19-.25,.45-.25,.78s.06,.6,.19,.81,.36,.42,.7,.63,.61,.37,.8,.5,.42,.3,.69,.53c.55,.48,.82,1.1,.82,1.85s-.28,1.36-.85,1.83c-.57,.47-1.2,.7-1.91,.7s-1.34-.19-1.91-.57-1.02-.86-1.37-1.43l1.08-1.22c.53,.92,1.09,1.38,1.68,1.38,.2,0,.37-.06,.52-.17s.22-.27,.22-.47c0-.43-.31-.82-.92-1.18-.65-.36-1.17-.76-1.54-1.2-.37-.44-.56-1.06-.56-1.87s.33-1.53,1-2.18c.67-.65,1.38-.97,2.15-.97s1.37,.26,1.82,.79c.45,.53,.67,1.24,.67,2.13,0,.36-.04,.75-.12,1.16l-1.82-.16c.04-.31,.06-.56,.06-.76Z"/><path class="cls-1" d="M128.49,26.26v1.9c-.64,0-1.13,0-1.48,.02-.04,1.33-.06,3.57-.06,6.72l-2.36-.22c0-2.33,.02-4.45,.06-6.34-.2,0-.58,.03-1.14,.1l-.3-1.64c.32-.07,.82-.15,1.5-.26,.03-.99,.08-2.43,.16-4.32l2.38,.22c-.08,1.32-.14,2.6-.18,3.84,.33-.01,.81-.02,1.42-.02Z"/><path class="cls-1" d="M130.59,26.07c.56-.73,1.29-1.09,2.2-1.09s1.58,.38,2.01,1.13c.43,.75,.65,1.82,.65,3.21s-.08,3.3-.24,5.74l-1.68-.14-.16-.64c-.63,.36-1.27,.54-1.92,.54s-1.19-.22-1.62-.65-.64-1.06-.64-1.87,.4-1.51,1.21-2.1c.81-.59,1.74-.89,2.79-.92v-.54c0-1.05-.25-1.58-.76-1.58-.25,0-.48,.18-.69,.53-.21,.35-.36,.76-.45,1.21l-1.84-.18c.2-1.04,.58-1.92,1.14-2.65Zm.64,6.35c0,.43,.25,.64,.76,.64,.35,0,.71-.08,1.1-.24l.04-1.68c-.63,.05-1.1,.21-1.42,.47-.32,.26-.48,.53-.48,.81Z"/><path class="cls-1" d="M140.19,37.3c.41,0,.75-.42,1-1.27,.25-.85,.38-1.9,.38-3.15-.71,1.27-1.44,1.9-2.19,1.9s-1.36-.26-1.82-.77c-.46-.51-.69-1.29-.69-2.34s.18-2.09,.54-3.12c.36-1.03,.8-1.86,1.33-2.48,.53-.62,1.03-.93,1.51-.93,.84,0,1.61,.34,2.32,1.02l1.4,.2c-.17,.87-.26,2.2-.26,3.99s-.05,3.11-.15,3.96c-.1,.85-.26,1.68-.49,2.49s-.56,1.46-1,1.94c-.44,.48-1.02,.72-1.74,.72s-1.41-.29-2.06-.87-1.18-1.28-1.58-2.09l1.68-.72c.52,1.01,1.13,1.52,1.82,1.52Zm.56-10.12c-.33,0-.67,.48-1.01,1.44s-.51,1.98-.51,3.06c0,.41,.06,.73,.17,.94s.24,.32,.38,.32,.32-.13,.55-.4,.47-.69,.73-1.28,.45-1.23,.57-1.94l.04-1.52c-.39-.41-.69-.62-.92-.62Z"/><path class="cls-1" d="M149.19,27.4c-.56,0-.98,.71-1.26,2.12,.03,.93,.04,1.83,.04,2.68s-.03,1.81-.08,2.88l-2.32-.2c.04-1.96,.06-3.04,.06-3.24,0-2.47-.12-4.35-.36-5.66l1.5,.16c.09,.39,.2,.73,.32,1.02,.65-1.4,1.31-2.1,1.98-2.1,.55,0,1.03,.24,1.44,.72l-.52,1.84c-.21-.15-.48-.22-.8-.22Z"/><path class="cls-1" d="M152.49,26.07c.56-.73,1.29-1.09,2.2-1.09s1.58,.38,2.01,1.13c.43,.75,.65,1.82,.65,3.21s-.08,3.3-.24,5.74l-1.68-.14-.16-.64c-.63,.36-1.27,.54-1.92,.54s-1.19-.22-1.62-.65-.64-1.06-.64-1.87,.4-1.51,1.21-2.1,1.74-.89,2.79-.92v-.54c0-1.05-.25-1.58-.76-1.58-.25,0-.48,.18-.69,.53-.21,.35-.36,.76-.45,1.21l-1.84-.18c.2-1.04,.58-1.92,1.14-2.65Zm.64,6.35c0,.43,.25,.64,.76,.64,.35,0,.71-.08,1.1-.24l.04-1.68c-.63,.05-1.1,.21-1.42,.47-.32,.26-.48,.53-.48,.81Z"/><path class="cls-1" d="M163.65,25.7c.81,0,1.43,.28,1.86,.84,.69-1.01,1.38-1.52,2.06-1.52,1.85,0,2.78,1.39,2.78,4.18,0,1.57-.13,3.48-.4,5.72l-2.32-.2c.25-2.49,.38-4.39,.38-5.7s-.21-1.96-.64-1.96c-.19,0-.41,.3-.66,.9-.25,.6-.42,1.27-.5,2-.03,1.67-.08,3.15-.16,4.46l-2.34-.22c.11-1.88,.16-3.43,.16-4.64s-.17-1.82-.5-1.82c-.21,0-.49,.37-.83,1.11-.34,.74-.58,1.52-.73,2.33,.01,1.23,.07,2.49,.18,3.8l-2.34-.22c-.15-1.88-.22-3.59-.22-5.14s.04-2.99,.12-4.34l1.66,.12c.08,.36,.19,1.01,.34,1.96,.71-1.11,1.41-1.66,2.1-1.66Z"/></g><g><path class="cls-1" d="M72.15,19.98c-1.01,0-1.83,.82-1.83,1.83s.82,1.83,1.83,1.83,1.83-.82,1.83-1.83-.82-1.83-1.83-1.83Z"/><path class="cls-1" d="M64.02,22.33c-4.23,0-7.67,3.44-7.67,7.67s3.44,7.67,7.67,7.67,7.67-3.44,7.67-7.67-3.44-7.67-7.67-7.67Zm0,12.59c-2.71,0-4.92-2.21-4.92-4.92s2.21-4.92,4.92-4.92,4.92,2.21,4.92,4.92-2.21,4.92-4.92,4.92Z"/><path class="cls-1" d="M70.12,45.58h-12.44c-5.16,0-9.36-4.2-9.36-9.36v-12.44c0-5.16,4.2-9.36,9.36-9.36h12.44c5.16,0,9.36,4.2,9.36,9.36v12.44c0,5.16-4.2,9.36-9.36,9.36Zm-12.44-28.23c-3.55,0-6.43,2.88-6.43,6.43v12.44c0,3.55,2.88,6.43,6.43,6.43h12.44c3.55,0,6.43-2.88,6.43-6.43v-12.44c0-3.55-2.88-6.43-6.43-6.43h-12.44Z"/></g></svg>