<?xml version="1.0" encoding="UTF-8"?><svg id="Capa_1" xmlns="http://www.w3.org/2000/svg" viewBox="0 0 210 60"><defs><style>.cls-1{fill:#ffffe3;}.cls-2{fill-rule:evenodd;}.cls-2,.cls-3{fill:#07c7b0;}</style></defs><g><path class="cls-1" d="M185.64,55.5c-53.76-2.26-107.51,5.87-161.27,3.61C10.91,58.57,0,47.37,0,35.13v-10.26C0,12.62,10.91,3.97,24.36,4.5,78.12,6.76,131.88-1.37,185.64,.89c13.46,.54,24.36,11.74,24.36,23.98v10.26c0,12.25-10.91,20.9-24.36,20.37Z"/><path class="cls-3" d="M44.29,60c-6.66,0-13.31-.12-19.94-.4C10.88,59.07-.5,47.86-.5,35.13v-10.26C-.5,19.38,1.71,14.27,5.72,10.48c4.66-4.4,11.46-6.75,18.67-6.47,26.85,1.13,54.17-.36,80.59-1.81,26.44-1.44,53.78-2.93,80.69-1.81,13.47,.54,24.84,11.75,24.84,24.47v10.26c0,5.49-2.21,10.6-6.22,14.39-4.66,4.4-11.46,6.76-18.67,6.47h0c-26.86-1.13-54.17,.36-80.59,1.81-19.93,1.09-40.37,2.2-60.74,2.2ZM23.21,4.97c-6.51,0-12.58,2.24-16.8,6.22C2.54,14.84,.5,19.57,.5,24.87v10.26c0,12.22,10.94,22.97,23.88,23.49,26.86,1.13,54.17-.36,80.59-1.81,26.44-1.44,53.78-2.93,80.68-1.81h0c6.93,.28,13.47-1.98,17.93-6.2,3.87-3.65,5.91-8.38,5.91-13.68v-10.26c0-12.22-10.94-22.97-23.88-23.49-26.85-1.13-54.17,.36-80.59,1.81-26.44,1.44-53.78,2.93-80.69,1.81-.38-.02-.76-.02-1.14-.02Z"/></g><g><path class="cls-3" d="M107.57,22.24l2,.18c.09,1.07,.24,2.48,.43,4.23,.19,1.75,.33,3,.41,3.73l.1-.02c.95-4.08,1.56-7.27,1.84-9.58l2.62,.22c-.75,4.41-1.84,8.95-3.28,13.6l-1.92-.16c-.45-1.57-.96-3.63-1.52-6.18-.57,2.75-1.12,4.94-1.64,6.58l-1.92-.16c-1.13-5.65-1.9-10.24-2.3-13.76l2.58,.22c.21,2.25,.55,5.33,1,9.24l.1-.02c.77-3.56,1.27-6.27,1.5-8.12Z"/><path class="cls-3" d="M118.47,26.62c.61-.76,1.22-1.14,1.81-1.14s1.08,.2,1.45,.6c.65,.69,.98,1.57,.98,2.64,0,1.93-.07,3.95-.22,6.06l-2.32-.22c.09-1.96,.14-3.89,.14-5.78,0-.71-.18-1.06-.54-1.06-.43,0-.89,.93-1.38,2.8-.03,1.33-.09,2.85-.2,4.54l-2.34-.22c.17-2.29,.26-4.85,.26-7.68s-.05-5.1-.14-6.82l2.34,.22c.11,1.88,.16,3.9,.16,6.06Z"/><path class="cls-3" d="M125.41,26.21c.56-.73,1.29-1.09,2.2-1.09s1.58,.38,2.01,1.13c.43,.75,.65,1.82,.65,3.21s-.08,3.3-.24,5.74l-1.68-.14-.16-.64c-.63,.36-1.27,.54-1.92,.54s-1.19-.22-1.62-.65-.64-1.06-.64-1.87,.4-1.51,1.21-2.1,1.74-.89,2.79-.92v-.54c0-1.05-.25-1.58-.76-1.58-.25,0-.48,.18-.69,.53-.21,.35-.36,.76-.45,1.21l-1.84-.18c.2-1.04,.58-1.92,1.14-2.65Zm.64,6.35c0,.43,.25,.64,.76,.64,.35,0,.71-.08,1.1-.24l.04-1.68c-.63,.05-1.1,.21-1.42,.47-.32,.26-.48,.53-.48,.81Z"/><path class="cls-3" d="M136.85,26.4v1.9c-.64,0-1.13,0-1.48,.02-.04,1.33-.06,3.57-.06,6.72l-2.36-.22c0-2.33,.02-4.45,.06-6.34-.2,0-.58,.03-1.14,.1l-.3-1.64c.32-.07,.82-.15,1.5-.26,.03-.99,.08-2.43,.16-4.32l2.38,.22c-.08,1.32-.14,2.6-.18,3.84,.33-.01,.81-.02,1.42-.02Z"/><path class="cls-3" d="M141.63,28.46c0-.8-.2-1.2-.6-1.2-.2,0-.38,.1-.55,.29-.17,.19-.25,.45-.25,.78s.06,.6,.19,.81c.13,.21,.36,.42,.7,.63s.61,.37,.8,.5,.42,.3,.69,.53c.55,.48,.82,1.1,.82,1.85s-.28,1.36-.85,1.83-1.2,.7-1.91,.7-1.34-.19-1.91-.57c-.57-.38-1.02-.86-1.37-1.43l1.08-1.22c.53,.92,1.09,1.38,1.68,1.38,.2,0,.37-.06,.52-.17,.15-.11,.22-.27,.22-.47,0-.43-.31-.82-.92-1.18-.65-.36-1.17-.76-1.54-1.2-.37-.44-.56-1.06-.56-1.87s.33-1.53,1-2.18,1.38-.97,2.15-.97,1.37,.26,1.82,.79c.45,.53,.67,1.24,.67,2.13,0,.36-.04,.75-.12,1.16l-1.82-.16c.04-.31,.06-.56,.06-.76Z"/><path class="cls-3" d="M150.89,34.56l-.46-2.78-2.98,.12-.76,3.76-2.8-.24,3.58-14.5,3.7,.32,2.62,13.56-2.9-.24Zm-1.76-11.02l-1.26,6.22,2.24-.08-.98-6.14Z"/><path class="cls-3" d="M157.59,26.66c.53-.81,1.19-1.22,1.98-1.22s1.4,.32,1.84,.96,.66,1.48,.66,2.52c0,1.55-.33,2.95-.99,4.22s-1.36,1.9-2.11,1.9c-.53,0-.99-.07-1.38-.2,.03,1.84,.07,3.45,.14,4.82l-2.34-.24c-.07-2.4-.1-4.95-.1-7.65s.09-5.03,.28-6.99l2.08,.22-.06,1.66Zm.6,6.38c.37,0,.72-.37,1.05-1.1,.33-.73,.49-1.47,.49-2.21s-.07-1.31-.2-1.72c-.13-.41-.29-.61-.46-.61-.29,0-.55,.17-.77,.52-.22,.35-.45,.85-.69,1.5-.01,.69-.02,1.76-.02,3.2,.2,.28,.4,.42,.6,.42Z"/><path class="cls-3" d="M165.79,26.66c.53-.81,1.19-1.22,1.98-1.22s1.4,.32,1.84,.96c.44,.64,.66,1.48,.66,2.52,0,1.55-.33,2.95-.99,4.22-.66,1.27-1.36,1.9-2.11,1.9-.53,0-.99-.07-1.38-.2,.03,1.84,.07,3.45,.14,4.82l-2.34-.24c-.07-2.4-.1-4.95-.1-7.65s.09-5.03,.28-6.99l2.08,.22-.06,1.66Zm.6,6.38c.37,0,.72-.37,1.05-1.1,.33-.73,.49-1.47,.49-2.21s-.07-1.31-.2-1.72c-.13-.41-.29-.61-.46-.61-.29,0-.55,.17-.77,.52s-.45,.85-.69,1.5c-.01,.69-.02,1.76-.02,3.2,.2,.28,.4,.42,.6,.42Z"/></g><g><path class="cls-3" d="M48.68,45.63l2.24-8.36c-1.27-2.29-1.94-4.85-1.94-7.46,0-8.51,6.93-15.44,15.44-15.44s15.44,6.93,15.44,15.44-6.93,15.44-15.44,15.44c-2.56,0-5.08-.65-7.34-1.87l-8.4,2.25Zm8.82-5.38l.53,.32c1.94,1.16,4.15,1.77,6.39,1.77,6.9,0,12.52-5.62,12.52-12.52s-5.62-12.52-12.52-12.52-12.52,5.62-12.52,12.52c0,2.28,.63,4.52,1.83,6.49l.32,.53-1.25,4.67,4.69-1.26Z"/><path class="cls-2" d="M70.17,31.96c-.64-.38-1.46-.8-2.21-.5-.57,.23-.94,1.13-1.31,1.59-.19,.24-.42,.27-.71,.15-2.16-.86-3.81-2.3-5-4.28-.2-.31-.17-.55,.08-.84,.36-.42,.81-.9,.91-1.47,.1-.57-.17-1.24-.41-1.74-.3-.65-.64-1.57-1.29-1.94-.6-.34-1.38-.15-1.92,.29-.92,.75-1.36,1.92-1.35,3.08,0,.33,.04,.66,.12,.98,.19,.77,.54,1.48,.94,2.16,.3,.51,.63,1.01,.98,1.49,1.15,1.57,2.59,2.93,4.25,3.95,.83,.51,1.72,.95,2.65,1.26,1.04,.34,1.96,.7,3.08,.49,1.17-.22,2.33-.95,2.8-2.08,.14-.33,.21-.71,.13-1.06-.16-.73-1.15-1.17-1.74-1.52Z"/></g></svg>