<?xml version="1.0" encoding="UTF-8"?><svg id="a" xmlns="http://www.w3.org/2000/svg" viewBox="0 0 135 50"><defs><style>.b{fill:#ffffe3;}.c{fill:#f66538;}</style></defs><rect class="c" x="0" y="0" width="135" height="50"/><g><path class="b" d="M28.8,20.23c-.59,0-1.1,.72-1.54,2.17-.44,1.45-.66,2.73-.66,3.85,0,2.35,.61,3.52,1.84,3.52,.35,0,.65-.15,.91-.45s.45-.61,.56-.93c.11-.32,.25-.76,.41-1.32l2.54,.2c-.35,1.64-.86,2.89-1.55,3.76s-1.64,1.3-2.87,1.3c-1.44,0-2.55-.54-3.33-1.63-.78-1.09-1.17-2.47-1.17-4.15,0-1.96,.39-3.87,1.16-5.72,.37-.92,.9-1.68,1.57-2.27,.67-.59,1.44-.89,2.31-.89,1.07,0,1.84,.35,2.32,1.06,.24,.35,.44,.7,.59,1.06,.15,.36,.26,.82,.33,1.38,.12,.89,.19,1.85,.22,2.88l-2.58-.24c0-1.72-.16-2.8-.48-3.24-.15-.23-.34-.34-.58-.34Z"/><path class="b" d="M34.14,27.95c0-1.24,.25-2.45,.76-3.64,.27-.6,.64-1.09,1.13-1.47,.49-.38,1.03-.57,1.63-.57s1.12,.14,1.55,.41c.43,.27,.76,.64,.99,1.09,.44,.89,.66,1.87,.66,2.92,0,1.45-.3,2.74-.89,3.87-.59,1.13-1.42,1.69-2.49,1.69-2.23,0-3.34-1.43-3.34-4.3Zm2.34,.18c0,1.51,.33,2.26,1,2.26,.29,0,.54-.42,.74-1.27,.2-.85,.3-1.66,.3-2.43,0-1.71-.28-2.56-.84-2.56-.36,0-.65,.46-.87,1.37-.22,.91-.33,1.79-.33,2.63Z"/><path class="b" d="M46.76,22.21c1.76,0,2.64,1.47,2.64,4.4,0,1.55-.09,3.19-.26,4.92l-2.34-.22c.15-1.52,.22-3.06,.22-4.61s-.22-2.33-.66-2.33c-.21,0-.49,.54-.82,1.61s-.54,2.12-.62,3.15c.03,.55,.08,1.53,.16,2.96l-2.34-.22c-.15-1.88-.22-3.53-.22-4.96s.04-2.71,.12-3.84l1.48,.16c.03,.11,.13,.54,.3,1.3,.77-1.55,1.55-2.32,2.34-2.32Z"/><path class="b" d="M56.4,23.37v1.9c-.64,0-1.13,0-1.48,.02-.04,1.33-.06,3.57-.06,6.72l-2.36-.22c0-2.33,.02-4.45,.06-6.34-.2,0-.58,.03-1.14,.1l-.3-1.64c.32-.07,.82-.15,1.5-.26,.03-.99,.08-2.43,.16-4.32l2.38,.22c-.08,1.32-.14,2.6-.18,3.84,.33-.01,.81-.02,1.42-.02Z"/><path class="b" d="M59.1,23.18c.56-.73,1.29-1.09,2.2-1.09s1.58,.38,2.01,1.13c.43,.75,.65,1.82,.65,3.21s-.08,3.3-.24,5.74l-1.68-.14-.16-.64c-.63,.36-1.27,.54-1.92,.54s-1.19-.22-1.62-.65-.64-1.06-.64-1.87,.4-1.51,1.21-2.1,1.74-.89,2.79-.92v-.54c0-1.05-.25-1.58-.76-1.58-.25,0-.48,.18-.69,.53-.21,.35-.36,.76-.45,1.21l-1.84-.18c.2-1.04,.58-1.92,1.14-2.65Zm.64,6.35c0,.43,.25,.64,.76,.64,.35,0,.71-.08,1.1-.24l.04-1.68c-.63,.05-1.1,.21-1.42,.47-.32,.26-.48,.53-.48,.81Zm1.18-8.1l-.9-1.14c1.51-.99,2.73-1.69,3.68-2.1l1.08,1.78c-1.27,.31-2.55,.79-3.86,1.46Z"/><path class="b" d="M70.08,26.61c.03-.19,.04-.43,.04-.72s-.06-.59-.18-.9-.27-.46-.46-.46c-.37,0-.64,.43-.81,1.29s-.25,1.65-.25,2.37c0,1.21,.25,1.82,.74,1.82,.4,0,.97-.7,1.7-2.1l1.48,1.06c-.36,.97-.81,1.75-1.35,2.32s-1.19,.86-1.95,.86-1.44-.3-2.05-.9c-.61-.6-.91-1.51-.91-2.74,0-1.31,.21-2.61,.64-3.9,.24-.71,.6-1.29,1.07-1.74s1.08-.68,1.81-.68,1.34,.37,1.83,1.12c.49,.75,.73,1.57,.73,2.48,0,.39-.06,.72-.18,1l-1.9-.18Z"/><path class="b" d="M78.82,23.37v1.9c-.64,0-1.13,0-1.48,.02-.04,1.33-.06,3.57-.06,6.72l-2.36-.22c0-2.33,.02-4.45,.06-6.34-.2,0-.58,.03-1.14,.1l-.3-1.64c.32-.07,.82-.15,1.5-.26,.03-.99,.08-2.43,.16-4.32l2.38,.22c-.08,1.32-.14,2.6-.18,3.84,.33-.01,.81-.02,1.42-.02Z"/><path class="b" d="M83.14,30.29c.51,0,1.05-.49,1.62-1.46l1.52,.9c-.25,.44-.5,.81-.73,1.12s-.58,.6-1.05,.88c-.47,.28-.99,.42-1.56,.42-.84,0-1.55-.36-2.12-1.07s-.86-1.68-.86-2.89c0-1.39,.25-2.68,.74-3.88,.27-.63,.65-1.14,1.15-1.53s1.01-.59,1.54-.59,.95,.08,1.27,.25c.32,.17,.58,.35,.77,.56,.19,.21,.36,.51,.51,.91s.25,.73,.31,.98c.06,.25,.11,.62,.15,1.1,.05,.64,.08,1.22,.08,1.74-1.07,.29-2.45,.56-4.14,.8,.04,.53,.13,.96,.28,1.28,.15,.32,.32,.48,.52,.48Zm.44-6.14c-.29,0-.56,.29-.79,.88-.23,.59-.37,1.27-.41,2.04,.71-.15,1.32-.29,1.84-.42,0-1.67-.21-2.5-.64-2.5Z"/><path class="b" d="M92.54,22.21c1.76,0,2.64,1.47,2.64,4.4,0,1.55-.09,3.19-.26,4.92l-2.34-.22c.15-1.52,.22-3.06,.22-4.61s-.22-2.33-.66-2.33c-.21,0-.49,.54-.82,1.61s-.54,2.12-.62,3.15c.03,.55,.08,1.53,.16,2.96l-2.34-.22c-.15-1.88-.22-3.53-.22-4.96s.04-2.71,.12-3.84l1.48,.16c.03,.11,.13,.54,.3,1.3,.77-1.55,1.55-2.32,2.34-2.32Z"/><path class="b" d="M96.96,27.95c0-1.24,.25-2.45,.76-3.64,.27-.6,.64-1.09,1.13-1.47,.49-.38,1.03-.57,1.63-.57s1.12,.14,1.55,.41c.43,.27,.76,.64,.99,1.09,.44,.89,.66,1.87,.66,2.92,0,1.45-.3,2.74-.89,3.87-.59,1.13-1.42,1.69-2.49,1.69-2.23,0-3.34-1.43-3.34-4.3Zm2.34,.18c0,1.51,.33,2.26,1,2.26,.29,0,.54-.42,.74-1.27s.3-1.66,.3-2.43c0-1.71-.28-2.56-.84-2.56-.36,0-.65,.46-.87,1.37-.22,.91-.33,1.79-.33,2.63Z"/><path class="b" d="M109.18,25.43c0-.8-.2-1.2-.6-1.2-.2,0-.38,.1-.55,.29-.17,.19-.25,.45-.25,.78s.06,.6,.19,.81c.13,.21,.36,.42,.7,.63s.61,.37,.8,.5,.42,.3,.69,.53c.55,.48,.82,1.1,.82,1.85s-.28,1.36-.85,1.83-1.2,.7-1.91,.7-1.34-.19-1.91-.57c-.57-.38-1.02-.86-1.37-1.43l1.08-1.22c.53,.92,1.09,1.38,1.68,1.38,.2,0,.37-.06,.52-.17,.15-.11,.22-.27,.22-.47,0-.43-.31-.82-.92-1.18-.65-.36-1.17-.76-1.54-1.2-.37-.44-.56-1.06-.56-1.87s.33-1.53,1-2.18,1.38-.97,2.15-.97,1.37,.26,1.82,.79c.45,.53,.67,1.24,.67,2.13,0,.36-.04,.75-.12,1.16l-1.82-.16c.04-.31,.06-.56,.06-.76Z"/></g></svg>