<?xml version="1.0" encoding="UTF-8"?><svg id="a" xmlns="http://www.w3.org/2000/svg" viewBox="0 0 135 50"><defs><style>.b{fill:#ffffe3;}.c{fill:#f66538;}</style></defs><rect class="c" x="0" width="135" height="50"/><g><path class="b" d="M48.35,17.73c1.56,0,2.76,.61,3.61,1.84,.85,1.23,1.27,2.71,1.27,4.46,0,1.35-.21,2.62-.64,3.81-.43,1.19-1.09,2.19-2,3-.91,.81-1.97,1.21-3.18,1.21-.24,0-1.15-.09-2.72-.28,.19-2.87,.28-5.24,.28-7.12s-.06-3.96-.18-6.24c1.29-.45,2.48-.68,3.56-.68Zm1.39,10.25c.61-1.09,.91-2.26,.91-3.52s-.22-2.3-.65-3.11-.95-1.22-1.55-1.22c-.32,0-.62,.05-.9,.16,.05,1.97,.08,3.63,.08,4.97s-.04,2.74-.12,4.19c.09,.11,.23,.16,.4,.16,.61,0,1.22-.54,1.83-1.63Z"/><path class="b" d="M54.71,27.97c0-1.24,.25-2.45,.76-3.64,.27-.6,.64-1.09,1.13-1.47,.49-.38,1.03-.57,1.63-.57s1.12,.14,1.55,.41c.43,.27,.76,.64,.99,1.09,.44,.89,.66,1.87,.66,2.92,0,1.45-.3,2.74-.89,3.87-.59,1.13-1.42,1.69-2.49,1.69-2.23,0-3.34-1.43-3.34-4.3Zm2.34,.18c0,1.51,.33,2.26,1,2.26,.29,0,.54-.42,.74-1.27s.3-1.66,.3-2.43c0-1.71-.28-2.56-.84-2.56-.36,0-.65,.46-.87,1.37-.22,.91-.33,1.79-.33,2.63Z"/><path class="b" d="M67.61,22.83c.81,0,1.43,.28,1.86,.84,.69-1.01,1.38-1.52,2.06-1.52,1.85,0,2.78,1.39,2.78,4.18,0,1.57-.13,3.48-.4,5.72l-2.32-.2c.25-2.49,.38-4.39,.38-5.7s-.21-1.96-.64-1.96c-.19,0-.41,.3-.66,.9-.25,.6-.42,1.27-.5,2-.03,1.67-.08,3.15-.16,4.46l-2.34-.22c.11-1.88,.16-3.43,.16-4.64s-.17-1.82-.5-1.82c-.21,0-.49,.37-.83,1.11s-.58,1.52-.73,2.33c.01,1.23,.07,2.49,.18,3.8l-2.34-.22c-.15-1.88-.22-3.59-.22-5.14s.04-2.99,.12-4.34l1.66,.12c.08,.36,.19,1.01,.34,1.96,.71-1.11,1.41-1.66,2.1-1.66Z"/><path class="b" d="M76.21,27.97c0-1.24,.25-2.45,.76-3.64,.27-.6,.64-1.09,1.13-1.47s1.03-.57,1.63-.57,1.12,.14,1.55,.41c.43,.27,.76,.64,.99,1.09,.44,.89,.66,1.87,.66,2.92,0,1.45-.3,2.74-.89,3.87-.59,1.13-1.42,1.69-2.49,1.69-2.23,0-3.34-1.43-3.34-4.3Zm2.34,.18c0,1.51,.33,2.26,1,2.26,.29,0,.54-.42,.74-1.27,.2-.85,.3-1.66,.3-2.43,0-1.71-.28-2.56-.84-2.56-.36,0-.65,.46-.87,1.37s-.33,1.79-.33,2.63Z"/><path class="b" d="M88.43,25.45c0-.8-.2-1.2-.6-1.2-.2,0-.38,.1-.55,.29-.17,.19-.25,.45-.25,.78s.06,.6,.19,.81c.13,.21,.36,.42,.7,.63,.34,.21,.61,.37,.8,.5,.19,.13,.42,.3,.69,.53,.55,.48,.82,1.1,.82,1.85s-.28,1.36-.85,1.83c-.57,.47-1.2,.7-1.91,.7s-1.34-.19-1.91-.57-1.02-.86-1.37-1.43l1.08-1.22c.53,.92,1.09,1.38,1.68,1.38,.2,0,.37-.06,.52-.17s.22-.27,.22-.47c0-.43-.31-.82-.92-1.18-.65-.36-1.17-.76-1.54-1.2-.37-.44-.56-1.06-.56-1.87s.33-1.53,1-2.18c.67-.65,1.38-.97,2.15-.97s1.37,.26,1.82,.79c.45,.53,.67,1.24,.67,2.13,0,.36-.04,.75-.12,1.16l-1.82-.16c.04-.31,.06-.56,.06-.76Z"/></g></svg>