<?xml version="1.0" encoding="UTF-8"?><svg id="a" xmlns="http://www.w3.org/2000/svg" viewBox="0 0 108 80"><defs><style>.b{fill:#ffffe3;}</style></defs><polygon class="b" points="0 72.21 38.39 9.11 61.8 46.57 77.58 20.61 108 72.21 97.72 72.21 77.16 38.21 66.76 55.69 81.74 80 68.74 80 38.52 29.22 12.63 72.21 0 72.21"/><ellipse class="b" cx="61.64" cy="12.01" rx="6.01" ry="6.14"/><path class="b" d="M58.49,4.53h0c-.63,.28-1.36-.02-1.63-.66l-.83-1.98c-.27-.64,.02-1.39,.65-1.66h0c.63-.28,1.36,.02,1.63,.66l.83,1.98c.27,.64-.02,1.39-.65,1.66Z"/><path class="b" d="M66.63,23.84h0c-.63,.28-1.36-.02-1.63-.66l-.83-1.98c-.27-.64,.02-1.39,.65-1.66h0c.63-.28,1.36,.02,1.63,.66l.83,1.98c.27,.64-.02,1.39-.65,1.66Z"/><path class="b" d="M68.99,8.8h0c-.27-.64,.02-1.39,.65-1.66l1.93-.85c.63-.28,1.36,.02,1.63,.66h0c.27,.64-.02,1.39-.65,1.66l-1.93,.85c-.63,.28-1.36-.02-1.63-.66Z"/><path class="b" d="M50.1,17.12h0c-.27-.64,.02-1.39,.65-1.66l1.93-.85c.63-.28,1.36,.02,1.63,.66h0c.27,.64-.02,1.39-.65,1.66l-1.93,.85c-.63,.28-1.36-.02-1.63-.66Z"/><path class="b" d="M64.61,4.44h0c-.64-.26-.95-.99-.69-1.64l.78-2c.25-.65,.97-.97,1.61-.71h0c.64,.26,.95,.99,.69,1.64l-.78,2c-.25,.65-.97,.97-1.61,.71Z"/><path class="b" d="M57,23.98h0c-.64-.26-.95-.99-.69-1.64l.78-2c.25-.65,.97-.97,1.61-.71h0c.64,.26,.95,.99,.69,1.64l-.78,2c-.25,.65-.97,.97-1.61,.71Z"/><path class="b" d="M69.08,15.06h0c.25-.65,.97-.97,1.61-.71l1.96,.8c.64,.26,.95,.99,.69,1.64h0c-.25,.65-.97,.97-1.61,.71l-1.96-.8c-.64-.26-.95-.99-.69-1.64Z"/><path class="b" d="M49.97,7.28h0c.25-.65,.97-.97,1.61-.71l1.96,.8c.64,.26,.95,.99,.69,1.64h0c-.25,.65-.97,.97-1.61,.71l-1.96-.8c-.64-.26-.95-.99-.69-1.64Z"/></svg>