<?xml version="1.0" encoding="UTF-8"?><svg id="Capa_1" xmlns="http://www.w3.org/2000/svg" viewBox="0 0 200 60"><defs><style>.cls-1{fill:#ffab00;}.cls-2{fill:#0023a0;}</style></defs><path class="cls-2" d="M128.59,0C113.73,0,103.3,7.89,103.21,19.18c-.09,8.36,7.46,13.02,13.14,15.8,5.86,2.84,7.82,4.67,7.8,7.21-.06,3.9-4.69,5.67-9,5.67-6,0-9.2-.88-14.12-3.04l-1.95-.93-2.1,13.01c3.51,1.62,10,3.02,16.74,3.09,15.76,0,26.01-7.8,26.14-19.85,.06-6.63-3.95-11.65-12.62-15.79-5.23-2.69-8.47-4.48-8.42-7.21,0-2.41,2.72-5,8.6-5,4.92-.08,8.45,1.05,11.24,2.23l1.34,.67,2.04-12.6C139.07,1.27,134.39,0,128.59,0h0Zm-46.62,1.01l-9.39,58.13h15.01L96.98,1.01h-15.01Zm-21.99,.06l-14.7,39.62-1.57-8.05c-3.66-9.87-11.58-20.22-20.81-24.42l13.44,50.87h15.89L75.87,1.07h-15.9Zm108.97,0c-3.6,0-6.29,1.02-7.88,4.82l-22.29,53.26h15.77s2.58-7.17,3.16-8.74c1.72,0,17.04,.03,19.22,.03,.46,2.03,1.83,8.7,1.83,8.7h13.94L180.55,1.07h-11.6Zm1.06,15.67l1,5.01s2.88,13.87,3.49,16.77h-12.46c1.25-3.34,5.98-16.25,5.98-16.25-.09,.16,1.23-3.36,2-5.54h0Z"/><path class="cls-1" d="M31.65,1.04H7.44l-.14,1c18.83,4.81,31.25,16.63,36.42,30.61l-5.26-26.72c-.9-3.67-3.54-4.77-6.8-4.9"/></svg>