<?xml version="1.0" encoding="UTF-8"?><svg id="Capa_1" xmlns="http://www.w3.org/2000/svg" viewBox="0 0 200 60"><defs><style>.cls-1{fill:#f59e00;}.cls-2{fill:#e20d17;}.cls-3{fill:#ea610a;}</style></defs><path class="cls-2" d="M88.55,30c0-9.54,4.46-18.03,11.39-23.52C94.83,2.43,88.37,0,81.34,0,64.77,0,51.34,13.43,51.34,30s13.43,30,30,30c7.03,0,13.49-2.43,18.61-6.48-6.94-5.49-11.39-13.99-11.39-23.52Z"/><path class="cls-3" d="M88.55,30c0,9.54,4.46,18.03,11.39,23.52,6.94-5.49,11.39-13.99,11.39-23.52s-4.46-18.03-11.39-23.52c-6.94,5.49-11.39,13.99-11.39,23.52Z"/><path class="cls-1" d="M146.52,46.23v-.88h-.36v-.24h.97v.24h-.36v.88h-.26Zm1.88,0v-.78l-.25,.67h-.28l-.25-.67v.77h-.26v-1.12h.38l.28,.72,.28-.72h.38v1.12h-.26Z"/><path class="cls-1" d="M118.55,0C111.52,0,105.06,2.43,99.95,6.48c6.94,5.49,11.39,13.99,11.39,23.52s-4.46,18.03-11.39,23.52c5.11,4.05,11.58,6.48,18.61,6.48,16.57,0,30-13.43,30-30S135.12,0,118.55,0Z"/></svg>