<?xml version="1.0" encoding="UTF-8"?><svg id="Capa_1" xmlns="http://www.w3.org/2000/svg" viewBox="0 0 200 60"><defs><style>.cls-1{fill:#f57d31;}.cls-2{fill:#014b8e;}</style></defs><path class="cls-2" d="M94,9.74c6.23-5.04,15.66-6.53,23.7-4.34,3.01,.76,6.45,2.21,7.14,5.14,.08,2.43-1.08,4.76-1.54,7.14-3.81-3.05-9.35-4.07-14.38-3.38-5.44,.96-9.29,5.02-11.31,9.29-2.32,5.04-3.41,10.81-1.3,16.04,1.11,2.81,3.66,5.2,6.98,6.09,5.24,1.37,10.87-.35,14.78-3.5-.78,3.05-1.16,6.17-2.13,9.17-.99,2.48-4.17,3.37-6.86,3.8-7.1,1.12-15.29-.14-20.3-4.95-4.92-4.66-6.05-11.3-5.8-17.39,.38-8.46,3.66-17.29,11.04-23.12Z"/><path class="cls-2" d="M46.57,6.38c5.22-.85,10.55-1.33,15.87-1.2,4.87,.23,10.11,1.14,13.72,4.22,4.3,3.58,4.42,9.94,.96,14.01-2.11,2.46-5.18,4.27-8.62,4.95,2.7,.98,5.35,2.38,6.68,4.76,3.12,5.59,1.44,12.89-3.89,17.01-4.23,3.39-10.1,4.58-15.68,4.92-4.15,.13-8.41,.02-12.4-1.11-2.12-.56-3.8-2.08-4.49-3.9-1.05-2.67-.63-5.56,0-8.27,2.67-11.79,5.14-23.62,7.86-35.4Zm9.78,7.24c-.72,3.39-1.56,6.76-2.13,10.17-.18,.95,1.13,1.36,2.01,1.22,3.54,.12,7.52-.26,10.13-2.58,2.35-2.17,2.66-6.49-.63-8.1-2.85-1.4-6.27-.76-9.37-.7Zm-4.13,19.05c-.91,3.23-1.45,6.54-2.24,9.8-.26,1.4-1.06,2.94,.15,4.18,3.75-.01,7.81,.23,11.1-1.68,3.95-2.01,5.25-7.41,1.98-10.36-2.99-2.37-7.28-1.82-10.98-1.95Z"/><path class="cls-2" d="M132.71,6.66c3.68-1.01,7.6-1.09,11.44-1.23,5.29-.07,10.94,.07,15.59,2.52,3.59,1.76,5.73,5.2,6.17,8.68,1.23,7.73-3.21,16.06-11.24,19.79-5.29,2.61-11.54,2.76-17.46,2.42-.97,3.83-1.61,7.72-2.63,11.53-.52,2.02-2.01,4-4.41,4.62-2.72,.22-5.47,.02-8.19,.09,3.75-16.1,7.04-32.3,10.73-48.42Zm10.63,7.31c-1.03,4.67-2.1,9.34-3.05,14.03-.33,.95,.45,1.83,1.38,2.25,2.87,.46,5.94,.04,8.47-1.23,4.77-2.44,6.78-8.15,4.59-12.5-2.28-3.43-7.54-2.84-11.4-2.54Z"/><path class="cls-2" d="M171.33,17.47c1.67-3.45,3.94-7.14,8.07-8.63,2.09-.71,4.29,.25,5.54,1.76,2.47,5.35,1.89,11.36-.05,16.76-3.75-4.05-8.33-7.46-13.56-9.9Z"/><path class="cls-1" d="M184.94,10.6c4.71,2.11,8.09,5.97,11.31,9.59,2.47,2.69,4.08,6.14,3.7,9.66-.26,2.99-2.05,5.66-4.08,7.99-4.05,4.64-9.04,8.58-14.47,11.89-2.24,1.28-4.98,2.4-7.68,1.66-3.68-.82-6.12-3.73-7.61-6.66,7.99-3.94,15.43-9.6,18.78-17.37,1.94-5.41,2.53-11.41,.05-16.76Z"/><path class="cls-2" d="M5.22,17.47c1.67-3.45,3.94-7.14,8.07-8.63,2.09-.71,4.29,.25,5.54,1.76,2.47,5.35,1.89,11.36-.05,16.76-3.75-4.05-8.33-7.46-13.56-9.9Z"/><path class="cls-1" d="M18.83,10.6c4.71,2.11,8.09,5.97,11.31,9.59,2.47,2.69,4.08,6.14,3.7,9.66-.26,2.99-2.05,5.66-4.08,7.99-4.05,4.64-9.04,8.58-14.47,11.89-2.24,1.28-4.98,2.4-7.68,1.66-3.68-.82-6.12-3.73-7.61-6.66,7.99-3.94,15.43-9.6,18.78-17.37,1.94-5.41,2.53-11.41,.05-16.76Z"/></svg>