<?xml version="1.0" encoding="UTF-8"?><svg id="Capa_1" xmlns="http://www.w3.org/2000/svg" viewBox="0 0 200 60"><defs><style>.cls-1{fill-rule:evenodd;}.cls-1,.cls-2{fill:#004481;}</style></defs><path class="cls-1" d="M127.26,58.34c-.36,.63-.41,.89-1.16,1.18-.3,.05-.6,.05-.91,0-.77-.27-.86-.73-1.18-1.31L98.06,9.82c-.21-.38-.44-.76-.48-1.2,0,0-.23-1.24,1.05-1.24,2.78,0,5.11,.07,7.66,.07,.84-.01,1.34,.24,1.73,.89l16.61,31.75c.33,.47,.41,.57,.64,.83,.59,.24,1.02,.06,1.36-.59l16.24-30.73s1-2.17,1.97-2.17c2.62,.01,5.14,.15,7.76,.15,1.16,0,1.16,.9,1.09,1.14-.79,1.38-1.13,2.09-1.43,2.79l-25,46.84Z"/><path class="cls-1" d="M170.3,1.22c.36-.63,.41-.89,1.16-1.18,.3-.05,.6-.05,.91,0,.77,.27,.86,.73,1.18,1.31l25.97,48.39c.21,.38,.44,.76,.48,1.2,0,0,.23,1.24-1.05,1.24-2.78,0-5.11-.07-7.66-.07-.84,.01-1.34-.24-1.73-.89l-16.61-31.75c-.33-.47-.41-.57-.64-.83-.59-.24-1.02-.06-1.36,.59l-16.24,30.73s-1,2.17-1.97,2.17c-2.62-.01-5.14-.15-7.76-.15-1.16,0-1.16-.9-1.09-1.14,.79-1.38,1.13-2.09,1.43-2.79L170.3,1.22Z"/><path class="cls-2" d="M96.06,38.2c-.65-1.44-1.91-2.96-2.71-3.86-1.18-1.14-2.09-1.9-3.71-2.46,.1-.26,.27-.33,.41-.41,1.28-.8,2.28-1.88,3.06-3.16,1.22-2.01,1.85-4.19,1.78-6.54-.16-.59,.08-1.18,0-1.79-.28-2.45-1.16-4.66-2.61-6.64-.11-.15-.23-.28-.36-.41-.74-.69-1.4-1.47-2.23-2.06-.3-.22-.63-.42-.93-.64-1.26-.85-2.66-1.37-4.11-1.78-.24-.06-.47-.14-.7-.23-1.74-.37-3.5-.43-5.29-.41-7.85,.08-15.71,.03-23.56,.03-.29,0-.59,.03-.87-.06-1.01-.33-2.06,.59-1.77,1.62,.19,.43,.23,.87,.23,1.34,0,14.83,0,29.67,0,44.5,0,1.28,.09,2.56-.12,3.83,.06,.51,.35,.79,.86,.86,8.02,.03,24.66,.08,25.69,.08,1.95,0,6.22-.56,7.35-.97,4.65-1.67,10.67-5.63,10.67-11.97,.07-.69,.5-5.6-1.07-8.85ZM61.38,16.76c0-.96,.34-1.3,1.32-1.3,5.19,0,10.39,0,15.58,.03,.97,0,7.7,.65,7.75,6.64,.04,4.17-2.06,6.83-5.65,6.83-1.69,0-14.99,.02-17.7,.02-1.03,0-1.32-.27-1.32-1.27,0-3.65,0-7.3,0-10.96Zm21.68,34.97c-.8,.19-7.48,.5-9.93,.51q-5.14,.01-10.28,0c-1.25,0-1.5-.25-1.5-1.49,0-4.23,0-8.46,0-12.69,0-1.26,.29-1.54,1.53-1.54,2.88,0,6.74,0,10.1,0,2.45,.05,8.09-.15,10.94,.81,2.56,.86,4.57,2.95,4.57,6.98,0,3.81-2.64,6.73-5.44,7.41Z"/><path class="cls-2" d="M43.66,37.84c-1.52-2.91-4.8-5.76-6.42-6.32,.1-.26,.27-.33,.41-.41,1.28-.8,2.28-1.88,3.06-3.16,1.22-2.01,1.85-4.19,1.78-6.54-.16-.59,.08-1.18,0-1.79-.28-2.45-1.16-4.66-2.61-6.64-.11-.15-.23-.28-.36-.41-.74-.69-1.4-1.47-2.23-2.06-.3-.22-.63-.42-.93-.64-1.26-.85-2.66-1.37-4.11-1.78-.24-.06-.47-.14-.7-.23-1.74-.37-3.5-.43-5.29-.41-7.85,.08-15.71,.03-23.56,.03-.29,0-.59,.03-.87-.06-1.01-.33-2.06,.59-1.77,1.62,.19,.43,.23,.87,.23,1.34,0,14.83,0,29.67,0,44.5,0,1.28,.09,2.56-.12,3.83,.06,.51,.35,.79,.86,.86,8.02,.03,24.66,.08,25.69,.08,1.95,0,6.22-.56,7.35-.97,4.65-1.67,9.82-5.68,10.67-11.97,.28-2.17,.57-5.71-1.07-8.85ZM8.98,16.4c0-.96,.34-1.3,1.32-1.3,5.19,0,10.39,0,15.58,.03,.97,0,7.7,.65,7.75,6.64,.04,4.17-2.33,6.15-5.87,6.69-1.56,.24-14.77,.16-17.48,.16-1.03,0-1.32-.27-1.32-1.27,0-3.65,0-7.3,0-10.96ZM30.66,51.38c-.8,.19-7.48,.5-9.93,.51q-5.14,.01-10.28,0c-1.25,0-1.5-.25-1.5-1.49,0-4.23,0-8.46,0-12.69,0-1.26,.29-1.54,1.53-1.54,2.88,0,6.74,0,10.1,0,2.45,.05,8.09-.15,10.94,.81,2.56,.86,4.57,2.95,4.57,6.98,0,3.81-2.64,6.73-5.44,7.41Z"/></svg>