<?xml version="1.0" encoding="UTF-8"?><svg id="Capa_1" xmlns="http://www.w3.org/2000/svg" viewBox="0 0 180 60"><defs><style>.cls-1{fill:#ffffe3;}.cls-2{fill:#07c7b0;}</style></defs><g><path class="cls-1" d="M151.66,56.9c-29.68,6.13-58.17,0-87.84-4.08-14.25-2.04-27.3,0-40.36,3.06-8.31,2.04-14.25-1.02-18.99-7.15C-1.47,38.52-.28,27.29,5.65,18.1,21.08-2.32,50.76-.28,74.5,1.77c14.25,1.02,26.12,5.11,40.36,7.15,14.25,1.02,27.3,0,40.36-4.08,9.5-2.04,17.81,2.04,21.37,9.19,3.56,7.15,3.56,14.29,1.19,21.44-4.75,10.21-14.25,18.38-26.12,21.44h0Z"/><path class="cls-2" d="M124.84,60c-15.8,0-31.46-2.33-47.7-4.75-4.38-.65-8.91-1.33-13.41-1.95-14.8-2.12-28.03,.21-40.13,3.05-7.86,1.93-14.27-.47-19.6-7.35C-1.72,39.18-1.28,27.84,5.16,17.86,21.16-3.31,52.02-.66,74.56,1.28c8.34,.6,15.71,2.21,23.52,3.91,5.39,1.18,10.96,2.39,16.88,3.24,15.04,1.07,27.78-.21,40.08-4.06,9.39-2.03,18.24,1.78,22.07,9.45,3.41,6.84,3.81,13.97,1.21,21.78-4.95,10.65-14.85,18.77-26.5,21.78h-.03c-9.11,1.89-18.05,2.63-26.95,2.63Zm-72.78-8.5c3.84,0,7.78,.25,11.85,.83,4.5,.62,9.03,1.29,13.42,1.95,25.27,3.76,49.13,7.32,74.19,2.15,11.32-2.93,20.94-10.83,25.74-21.15,2.5-7.53,2.12-14.44-1.18-21.06-3.6-7.22-11.93-10.8-20.72-8.91-12.41,3.88-25.3,5.19-40.54,4.1-6.01-.86-11.6-2.08-17.01-3.26-7.76-1.69-15.09-3.29-23.35-3.89C52.19,.34,21.72-2.28,6.12,18.37-.12,28.03-.55,39.03,4.96,48.51c5.06,6.52,10.89,8.73,18.34,6.9,8.91-2.09,18.44-3.91,28.75-3.91Z"/></g><g><path class="cls-2" d="M34.35,37.21c-.11-3.47-.16-6.08-.16-7.84s.11-3.64,.34-5.64l3.76,.3c.47,1.68,.96,4.03,1.48,7.06,.75-2.44,1.41-5.08,1.98-7.92l3.78,.34c.11,4.12,.16,7.13,.16,9.03s-.06,3.59-.18,5.07l-2.74-.26c.17-1.68,.32-5.24,.44-10.68l-.16-.02c-.13,.52-.35,1.41-.64,2.68-.61,2.63-1.21,4.87-1.78,6.72l-1.82-.16c-.32-1.28-.69-2.94-1.11-4.97-.42-2.03-.74-3.53-.97-4.49l-.16-.02c.12,4.45,.26,8.13,.42,11.04l-2.64-.24Z"/><path class="cls-2" d="M48.29,28.54c.56-.73,1.29-1.09,2.2-1.09s1.58,.38,2.01,1.13c.43,.75,.65,1.82,.65,3.21s-.08,3.3-.24,5.74l-1.68-.14-.16-.64c-.63,.36-1.27,.54-1.92,.54s-1.19-.22-1.62-.65-.64-1.06-.64-1.87,.4-1.51,1.21-2.1,1.74-.89,2.79-.92v-.54c0-1.05-.25-1.58-.76-1.58-.25,0-.48,.18-.69,.53-.21,.35-.36,.76-.45,1.21l-1.84-.18c.2-1.04,.58-1.92,1.14-2.65Zm.64,6.35c0,.43,.25,.64,.76,.64,.35,0,.71-.08,1.1-.24l.04-1.68c-.63,.05-1.1,.21-1.42,.47-.32,.26-.48,.53-.48,.81Zm1.18-8.1l-.9-1.14c1.51-.99,2.73-1.69,3.68-2.1l1.08,1.78c-1.27,.31-2.55,.79-3.86,1.46Z"/><path class="cls-2" d="M58.77,30.79c0-.8-.2-1.2-.6-1.2-.2,0-.38,.1-.55,.29-.17,.19-.25,.45-.25,.78s.06,.6,.19,.81,.36,.42,.7,.63,.61,.37,.8,.5,.42,.3,.69,.53c.55,.48,.82,1.1,.82,1.85s-.28,1.36-.85,1.83c-.57,.47-1.2,.7-1.91,.7s-1.34-.19-1.91-.57-1.02-.86-1.37-1.43l1.08-1.22c.53,.92,1.09,1.38,1.68,1.38,.2,0,.37-.06,.52-.17s.22-.27,.22-.47c0-.43-.31-.82-.92-1.18-.65-.36-1.17-.76-1.54-1.2-.37-.44-.56-1.06-.56-1.87s.33-1.53,1-2.18c.67-.65,1.38-.97,2.15-.97s1.37,.26,1.82,.79c.45,.53,.67,1.24,.67,2.13,0,.36-.04,.75-.12,1.16l-1.82-.16c.04-.31,.06-.56,.06-.76Z"/><path class="cls-2" d="M67.35,24.03l2.24,.26-.2,2.24-2.24-.28,.2-2.22Zm-.16,3.52l2.28,.22v9.6l-2.28-.22v-9.6Z"/><path class="cls-2" d="M75.67,27.57c1.76,0,2.64,1.47,2.64,4.4,0,1.55-.09,3.19-.26,4.92l-2.34-.22c.15-1.52,.22-3.06,.22-4.61s-.22-2.33-.66-2.33c-.21,0-.49,.54-.82,1.61-.33,1.07-.54,2.12-.62,3.15,.03,.55,.08,1.53,.16,2.96l-2.34-.22c-.15-1.88-.22-3.53-.22-4.96s.04-2.71,.12-3.84l1.48,.16c.03,.11,.13,.54,.3,1.3,.77-1.55,1.55-2.32,2.34-2.32Z"/><path class="cls-2" d="M80.43,28.19c0-1.8,.27-3.22,.81-4.25s1.23-1.55,2.08-1.55,1.49,.43,1.94,1.29c.45,.86,.67,2.04,.67,3.55l-1.86-.2c0-1.49-.23-2.24-.7-2.24-.4,0-.6,1.13-.6,3.4v.58c.89-.07,1.62-.1,2.18-.1v1.86c-.92,0-1.64,.03-2.16,.1,0,2.04,.07,4.31,.22,6.8l-2.34-.24c-.11-1.84-.18-3.92-.22-6.24-.35,.05-.59,.1-.72,.14l-.42-1.8c.13-.04,.51-.11,1.12-.22v-.88Z"/><path class="cls-2" d="M85.23,33.31c0-1.24,.25-2.45,.76-3.64,.27-.6,.64-1.09,1.13-1.47,.49-.38,1.03-.57,1.63-.57s1.12,.14,1.55,.41c.43,.27,.76,.64,.99,1.09,.44,.89,.66,1.87,.66,2.92,0,1.45-.3,2.74-.89,3.87-.59,1.13-1.42,1.69-2.49,1.69-2.23,0-3.34-1.43-3.34-4.3Zm2.34,.18c0,1.51,.33,2.26,1,2.26,.29,0,.54-.42,.74-1.27s.3-1.66,.3-2.43c0-1.71-.28-2.56-.84-2.56-.36,0-.65,.46-.87,1.37-.22,.91-.33,1.79-.33,2.63Z"/><path class="cls-2" d="M96.89,29.87c-.56,0-.98,.71-1.26,2.12,.03,.93,.04,1.83,.04,2.68s-.03,1.81-.08,2.88l-2.32-.2c.04-1.96,.06-3.04,.06-3.24,0-2.47-.12-4.35-.36-5.66l1.5,.16c.09,.39,.2,.73,.32,1.02,.65-1.4,1.31-2.1,1.98-2.1,.55,0,1.03,.24,1.44,.72l-.52,1.84c-.21-.15-.48-.22-.8-.22Z"/><path class="cls-2" d="M103.55,28.17c.81,0,1.43,.28,1.86,.84,.69-1.01,1.38-1.52,2.06-1.52,1.85,0,2.78,1.39,2.78,4.18,0,1.57-.13,3.48-.4,5.72l-2.32-.2c.25-2.49,.38-4.39,.38-5.7s-.21-1.96-.64-1.96c-.19,0-.41,.3-.66,.9s-.42,1.27-.5,2c-.03,1.67-.08,3.15-.16,4.46l-2.34-.22c.11-1.88,.16-3.43,.16-4.64s-.17-1.82-.5-1.82c-.21,0-.49,.37-.83,1.11-.34,.74-.58,1.52-.73,2.33,.01,1.23,.07,2.49,.18,3.8l-2.34-.22c-.15-1.88-.22-3.59-.22-5.14s.04-2.99,.12-4.34l1.66,.12c.08,.36,.19,1.01,.34,1.96,.71-1.11,1.41-1.66,2.1-1.66Z"/><path class="cls-2" d="M113.13,28.54c.56-.73,1.29-1.09,2.2-1.09s1.58,.38,2.01,1.13c.43,.75,.65,1.82,.65,3.21s-.08,3.3-.24,5.74l-1.68-.14-.16-.64c-.63,.36-1.27,.54-1.92,.54s-1.19-.22-1.62-.65-.64-1.06-.64-1.87,.4-1.51,1.21-2.1,1.74-.89,2.79-.92v-.54c0-1.05-.25-1.58-.76-1.58-.25,0-.48,.18-.69,.53-.21,.35-.36,.76-.45,1.21l-1.84-.18c.2-1.04,.58-1.92,1.14-2.65Zm.64,6.35c0,.43,.25,.64,.76,.64,.35,0,.71-.08,1.1-.24l.04-1.68c-.63,.05-1.1,.21-1.42,.47-.32,.26-.48,.53-.48,.81Z"/><path class="cls-2" d="M123.51,31.97c.03-.19,.04-.43,.04-.72s-.06-.59-.18-.9-.27-.46-.46-.46c-.37,0-.64,.43-.81,1.29-.17,.86-.25,1.65-.25,2.37,0,1.21,.25,1.82,.74,1.82,.4,0,.97-.7,1.7-2.1l1.48,1.06c-.36,.97-.81,1.75-1.35,2.32s-1.19,.86-1.95,.86-1.44-.3-2.05-.9c-.61-.6-.91-1.51-.91-2.74,0-1.31,.21-2.61,.64-3.9,.24-.71,.6-1.29,1.07-1.74,.47-.45,1.08-.68,1.81-.68s1.34,.37,1.83,1.12c.49,.75,.73,1.57,.73,2.48,0,.39-.06,.72-.18,1l-1.9-.18Z"/><path class="cls-2" d="M127.49,24.03l2.24,.26-.2,2.24-2.24-.28,.2-2.22Zm-.16,3.52l2.28,.22v9.6l-2.28-.22v-9.6Z"/><path class="cls-2" d="M131.15,33.31c0-1.24,.25-2.45,.76-3.64,.27-.6,.64-1.09,1.13-1.47,.49-.38,1.03-.57,1.63-.57s1.12,.14,1.55,.41c.43,.27,.76,.64,.99,1.09,.44,.89,.66,1.87,.66,2.92,0,1.45-.3,2.74-.89,3.87-.59,1.13-1.42,1.69-2.49,1.69-2.23,0-3.34-1.43-3.34-4.3Zm3-6.52l-.9-1.14c1.51-.99,2.73-1.69,3.68-2.1l1.08,1.78c-1.27,.31-2.55,.79-3.86,1.46Zm-.66,6.7c0,1.51,.33,2.26,1,2.26,.29,0,.54-.42,.74-1.27s.3-1.66,.3-2.43c0-1.71-.28-2.56-.84-2.56-.36,0-.65,.46-.87,1.37-.22,.91-.33,1.79-.33,2.63Z"/><path class="cls-2" d="M143.17,27.57c1.76,0,2.64,1.47,2.64,4.4,0,1.55-.09,3.19-.26,4.92l-2.34-.22c.15-1.52,.22-3.06,.22-4.61s-.22-2.33-.66-2.33c-.21,0-.49,.54-.82,1.61s-.54,2.12-.62,3.15c.03,.55,.08,1.53,.16,2.96l-2.34-.22c-.15-1.88-.22-3.53-.22-4.96s.04-2.71,.12-3.84l1.48,.16c.03,.11,.13,.54,.3,1.3,.77-1.55,1.55-2.32,2.34-2.32Z"/></g></svg>