<?xml version="1.0" encoding="UTF-8"?><svg id="Capa_1" xmlns="http://www.w3.org/2000/svg" viewBox="0 0 200 60"><defs><style>.cls-1{fill:#ffffe3;}.cls-2{fill:#07c7b0;}</style></defs><g><path class="cls-1" d="M176.41,55.5c-50.94-2.26-101.89,5.87-152.83,3.61C10.83,58.58,.5,47.37,.5,35.13v-10.26c0-12.25,10.34-20.9,23.09-20.37C74.53,6.76,125.47-1.37,176.41,.89c12.75,.54,23.09,11.74,23.09,23.98v10.26c0,12.25-10.34,20.91-23.09,20.37Z"/><path class="cls-2" d="M42.46,60c-6.31,0-12.61-.12-18.89-.4C10.79,59.07,0,47.86,0,35.13v-10.26C0,19.19,2.22,13.95,6.26,10.13c4.46-4.23,10.61-6.41,17.34-6.12,25.45,1.13,51.33-.36,76.36-1.81C125.03,.76,150.94-.73,176.44,.4c12.77,.54,23.56,11.74,23.56,24.47v10.26c0,5.68-2.23,10.92-6.26,14.74-4.46,4.23-10.62,6.4-17.34,6.12h0c-25.45-1.13-51.33,.36-76.37,1.81-18.88,1.09-38.26,2.2-57.57,2.2ZM22.45,4.97c-6.01,0-11.48,2.06-15.49,5.87C3.11,14.48,1,19.46,1,24.87v10.26c0,12.22,10.35,22.97,22.61,23.49,25.45,1.13,51.33-.36,76.36-1.81,25.06-1.44,50.97-2.94,76.47-1.81h0c6.47,.29,12.35-1.81,16.61-5.84,3.84-3.64,5.96-8.62,5.96-14.03v-10.26c0-12.22-10.36-22.97-22.61-23.49-25.45-1.13-51.33,.36-76.36,1.81-25.06,1.44-50.97,2.94-76.47,1.81-.37-.02-.75-.02-1.12-.02Z"/></g><g><path class="cls-2" d="M59.02,20.81l.02,9.3c0,1.53-.05,3.18-.16,4.94l-2.24-.22c-1.72-3.91-3.13-6.83-4.22-8.78,.01,1.97,.02,5.12,.02,9.44l-2.34-.26c-.04-.83-.06-1.63-.06-2.4,0-3.23,.18-6.99,.54-11.28l2.66,.26c1.32,3.64,2.51,6.41,3.56,8.3-.08-4.03-.17-7.2-.28-9.52l2.5,.22Z"/><path class="cls-2" d="M63.58,33.44c.51,0,1.05-.49,1.62-1.46l1.52,.9c-.25,.44-.5,.81-.73,1.12s-.58,.6-1.05,.88c-.47,.28-.99,.42-1.56,.42-.84,0-1.55-.36-2.12-1.07s-.86-1.68-.86-2.89c0-1.39,.25-2.68,.74-3.88,.27-.63,.65-1.14,1.15-1.53s1.01-.59,1.54-.59,.95,.08,1.27,.25,.58,.35,.77,.56c.19,.21,.36,.51,.51,.91,.15,.4,.25,.73,.31,.98,.06,.25,.11,.62,.15,1.1,.05,.64,.08,1.22,.08,1.74-1.07,.29-2.45,.56-4.14,.8,.04,.53,.13,.96,.28,1.28,.15,.32,.32,.48,.52,.48Zm.44-6.14c-.29,0-.56,.29-.79,.88s-.37,1.27-.41,2.04c.71-.15,1.32-.29,1.84-.42,0-1.67-.21-2.5-.64-2.5Z"/><path class="cls-2" d="M71.88,29.77c.03-.19,.04-.43,.04-.72s-.06-.59-.18-.9-.27-.46-.46-.46c-.37,0-.64,.43-.81,1.29-.17,.86-.25,1.65-.25,2.37,0,1.21,.25,1.82,.74,1.82,.4,0,.97-.7,1.7-2.1l1.48,1.06c-.36,.97-.81,1.75-1.35,2.32s-1.19,.86-1.95,.86-1.44-.3-2.05-.9c-.61-.6-.91-1.51-.91-2.74,0-1.31,.21-2.61,.64-3.9,.24-.71,.6-1.29,1.07-1.74,.47-.45,1.08-.68,1.81-.68s1.34,.37,1.83,1.12c.49,.75,.73,1.57,.73,2.48,0,.39-.06,.72-.18,1l-1.9-.18Z"/><path class="cls-2" d="M78,33.44c.51,0,1.05-.49,1.62-1.46l1.52,.9c-.25,.44-.5,.81-.73,1.12s-.58,.6-1.05,.88c-.47,.28-.99,.42-1.56,.42-.84,0-1.55-.36-2.12-1.07s-.86-1.68-.86-2.89c0-1.39,.25-2.68,.74-3.88,.27-.63,.65-1.14,1.15-1.53s1.01-.59,1.54-.59,.95,.08,1.27,.25c.32,.17,.58,.35,.77,.56,.19,.21,.36,.51,.51,.91s.25,.73,.31,.98c.06,.25,.11,.62,.15,1.1,.05,.64,.08,1.22,.08,1.74-1.07,.29-2.45,.56-4.14,.8,.04,.53,.13,.96,.28,1.28,.15,.32,.32,.48,.52,.48Zm.44-6.14c-.29,0-.56,.29-.79,.88-.23,.59-.37,1.27-.41,2.04,.71-.15,1.32-.29,1.84-.42,0-1.67-.21-2.5-.64-2.5Z"/><path class="cls-2" d="M86.4,28.59c0-.8-.2-1.2-.6-1.2-.2,0-.38,.1-.55,.29-.17,.19-.25,.45-.25,.78s.06,.6,.19,.81c.13,.21,.36,.42,.7,.63s.61,.37,.8,.5,.42,.3,.69,.53c.55,.48,.82,1.1,.82,1.85s-.28,1.36-.85,1.83-1.2,.7-1.91,.7-1.34-.19-1.91-.57c-.57-.38-1.02-.86-1.37-1.43l1.08-1.22c.53,.92,1.09,1.38,1.68,1.38,.2,0,.37-.06,.52-.17,.15-.11,.22-.27,.22-.47,0-.43-.31-.82-.92-1.18-.65-.36-1.17-.76-1.54-1.2-.37-.44-.56-1.06-.56-1.87s.33-1.53,1-2.18,1.38-.97,2.15-.97,1.37,.26,1.82,.79c.45,.53,.67,1.24,.67,2.13,0,.36-.04,.75-.12,1.16l-1.82-.16c.04-.31,.06-.56,.06-.76Z"/><path class="cls-2" d="M90.14,21.82l2.24,.26-.2,2.24-2.24-.28,.2-2.22Zm-.16,3.52l2.28,.22v9.6l-2.28-.22v-9.6Z"/><path class="cls-2" d="M99.02,26.52v1.9c-.64,0-1.13,0-1.48,.02-.04,1.33-.06,3.57-.06,6.72l-2.36-.22c0-2.33,.02-4.45,.06-6.34-.2,0-.58,.03-1.14,.1l-.3-1.64c.32-.07,.82-.15,1.5-.26,.03-.99,.08-2.43,.16-4.32l2.38,.22c-.08,1.32-.14,2.6-.18,3.84,.33-.01,.81-.02,1.42-.02Z"/><path class="cls-2" d="M99.54,31.1c0-1.24,.25-2.45,.76-3.64,.27-.6,.64-1.09,1.13-1.47,.49-.38,1.03-.57,1.63-.57s1.12,.14,1.55,.41c.43,.27,.76,.64,.99,1.09,.44,.89,.66,1.87,.66,2.92,0,1.45-.3,2.74-.89,3.87-.59,1.13-1.42,1.69-2.49,1.69-2.23,0-3.34-1.43-3.34-4.3Zm2.34,.18c0,1.51,.33,2.26,1,2.26,.29,0,.54-.42,.74-1.27s.3-1.66,.3-2.43c0-1.71-.28-2.56-.84-2.56-.36,0-.65,.46-.87,1.37-.22,.91-.33,1.79-.33,2.63Z"/><path class="cls-2" d="M113.32,26.34c.56-.73,1.29-1.09,2.2-1.09s1.58,.38,2.01,1.13c.43,.75,.65,1.82,.65,3.21s-.08,3.3-.24,5.74l-1.68-.14-.16-.64c-.63,.36-1.27,.54-1.92,.54s-1.19-.22-1.62-.65-.64-1.06-.64-1.87,.4-1.51,1.21-2.1,1.74-.89,2.79-.92v-.54c0-1.05-.25-1.58-.76-1.58-.25,0-.48,.18-.69,.53-.21,.35-.36,.76-.45,1.21l-1.84-.18c.2-1.04,.58-1.92,1.14-2.65Zm.64,6.35c0,.43,.25,.64,.76,.64,.35,0,.71-.08,1.1-.24l.04-1.68c-.63,.05-1.1,.21-1.42,.47-.32,.26-.48,.53-.48,.81Z"/><path class="cls-2" d="M124.8,24.86l1.92,1.12c-1.11,3.43-2.24,7.97-3.4,13.64l-2.2-.2c.21-1.05,.57-2.51,1.06-4.36-1.28-2.45-2.09-5.55-2.42-9.28l2.24,.22c.2,2.45,.52,4.55,.96,6.28,.61-2.85,1.23-5.33,1.84-7.42Z"/><path class="cls-2" d="M134.14,25.51l-.04,3.16c0,2.97,.05,5.16,.16,6.56l-1.98-.2c-.04-.56-.13-1.13-.26-1.7-.73,1.08-1.47,1.62-2.21,1.62s-1.33-.25-1.77-.76c-.44-.51-.66-1.21-.66-2.1,0-1.73,.13-3.8,.38-6.2l2.32,.22c-.24,2.28-.36,4.17-.36,5.68,0,.68,.21,1.02,.64,1.02,.2,0,.44-.27,.73-.82,.29-.55,.52-1.21,.69-1.98-.01-.29-.02-.64-.02-1.04s.02-1.62,.06-3.66l2.32,.2Z"/><path class="cls-2" d="M139.98,25.82l.02-2.48c0-.92-.02-1.97-.06-3.14l2.34,.2c.03,.95,.04,2.66,.04,5.15s-.11,5.69-.32,9.61l-1.78-.16c-.04-.53-.08-1.16-.12-1.88-.57,1.15-1.19,1.72-1.86,1.72-1.03,0-1.74-.32-2.14-.96-.4-.64-.6-1.57-.6-2.79s.26-2.48,.79-3.79c.53-1.31,1.12-1.96,1.79-1.96,.6,0,1.23,.16,1.9,.48Zm.06,1.86c-.33-.25-.66-.38-.99-.38s-.61,.43-.85,1.29c-.24,.86-.36,1.76-.36,2.69s.23,1.4,.68,1.4c.17,0,.41-.29,.7-.87s.56-1.32,.8-2.21l.02-1.92Z"/><path class="cls-2" d="M145.24,26.34c.56-.73,1.29-1.09,2.2-1.09s1.58,.38,2.01,1.13c.43,.75,.65,1.82,.65,3.21s-.08,3.3-.24,5.74l-1.68-.14-.16-.64c-.63,.36-1.27,.54-1.92,.54s-1.19-.22-1.62-.65-.64-1.06-.64-1.87,.4-1.51,1.21-2.1c.81-.59,1.74-.89,2.79-.92v-.54c0-1.05-.25-1.58-.76-1.58-.25,0-.48,.18-.69,.53-.21,.35-.36,.76-.45,1.21l-1.84-.18c.2-1.04,.58-1.92,1.14-2.65Zm.64,6.35c0,.43,.25,.64,.76,.64,.35,0,.71-.08,1.1-.24l.04-1.68c-.63,.05-1.1,.21-1.42,.47-.32,.26-.48,.53-.48,.81Z"/></g></svg>