<?xml version="1.0" encoding="UTF-8"?><svg id="Capa_1" xmlns="http://www.w3.org/2000/svg" viewBox="0 0 50 50"><defs><style>.cls-1,.cls-2{fill:#ffffe3;}.cls-2{fill-rule:evenodd;}</style></defs><path class="cls-1" d="M0,50l3.59-13.37C1.56,32.96,.49,28.86,.49,24.7,.49,11.08,11.59,0,25.24,0s24.76,11.08,24.76,24.7-11.11,24.7-24.76,24.7c-4.1,0-8.15-1.03-11.77-2.99L0,50Zm14.15-8.61l.85,.5c3.12,1.85,6.66,2.83,10.25,2.83,11.07,0,20.08-8.98,20.08-20.03S36.31,4.67,25.24,4.67,5.17,13.65,5.17,24.7c0,3.65,1.02,7.24,2.94,10.38l.52,.85-2.01,7.47,7.53-2.01Z"/><path class="cls-2" d="M34.45,28.13c-1.02-.61-2.34-1.29-3.55-.8-.92,.38-1.51,1.81-2.11,2.55-.31,.38-.67,.44-1.14,.25-3.46-1.37-6.11-3.68-8.01-6.85-.32-.49-.27-.88,.12-1.34,.58-.68,1.3-1.45,1.46-2.36,.16-.91-.27-1.98-.65-2.79-.48-1.04-1.02-2.52-2.07-3.11-.96-.54-2.22-.24-3.07,.46-1.47,1.2-2.18,3.07-2.16,4.93,0,.53,.07,1.06,.19,1.56,.3,1.23,.87,2.37,1.5,3.46,.48,.82,1.01,1.62,1.57,2.38,1.85,2.51,4.15,4.68,6.81,6.31,1.33,.81,2.76,1.53,4.25,2.02,1.66,.55,3.15,1.12,4.95,.78,1.88-.36,3.74-1.52,4.48-3.33,.22-.54,.33-1.13,.21-1.7-.26-1.17-1.84-1.87-2.79-2.43Z"/></svg>