<?xml version="1.0" encoding="UTF-8"?><svg id="Capa_1" xmlns="http://www.w3.org/2000/svg" viewBox="0 0 50 50"><defs><style>.cls-1{fill:#ffffe3;}</style></defs><path class="cls-1" d="M25.01,0C11.22,0,0,11.22,0,25.01c0,12.39,8.87,22.78,21.09,24.69,1.27,.2,2.59,.3,3.91,.3s2.62-.11,3.9-.3c12.22-1.91,21.09-12.3,21.09-24.69C50,11.22,38.79,0,25.01,0Zm3.59,45.74v-14.08h5.36l1.02-6.65h-6.39v-4.32c0-1.82,.89-3.6,3.75-3.6h2.9v-5.67s-2.63-.45-5.15-.45c-5.26,0-8.7,3.19-8.7,8.96v5.07h-5.85v6.65h5.85v14.08c-10.13-1.75-17.45-10.4-17.45-20.73C3.96,13.39,13.41,3.96,25.01,3.96s21.03,9.43,21.03,21.05c0,10.33-7.32,18.98-17.44,20.73Z"/></svg>