<?xml version="1.0" encoding="UTF-8"?><svg id="Capa_1" xmlns="http://www.w3.org/2000/svg" viewBox="0 0 50 50"><defs><style>.cls-1{fill:#ffffe3;}</style></defs><path class="cls-1" d="M38.24,8.93c-1.62,0-2.93,1.31-2.93,2.93s1.31,2.93,2.93,2.93,2.93-1.31,2.93-2.93-1.31-2.93-2.93-2.93Z"/><path class="cls-1" d="M25.21,12.69c-6.79,0-12.31,5.52-12.31,12.31s5.52,12.31,12.31,12.31,12.31-5.52,12.31-12.31-5.52-12.31-12.31-12.31Zm0,20.2c-4.35,0-7.89-3.54-7.89-7.89s3.54-7.89,7.89-7.89,7.89,3.54,7.89,7.89-3.54,7.89-7.89,7.89Z"/><path class="cls-1" d="M34.98,50H15.02c-8.28,0-15.02-6.74-15.02-15.02V15.02C0,6.74,6.74,0,15.02,0h19.96c8.28,0,15.02,6.74,15.02,15.02v19.96c0,8.28-6.74,15.02-15.02,15.02ZM15.02,4.7c-5.69,0-10.31,4.63-10.31,10.31v19.96c0,5.69,4.63,10.31,10.31,10.31h19.96c5.69,0,10.32-4.63,10.32-10.31V15.02c0-5.69-4.63-10.31-10.32-10.31H15.02Z"/></svg>