<?xml version="1.0" encoding="UTF-8"?><svg id="Capa_1" xmlns="http://www.w3.org/2000/svg" viewBox="0 0 200 60"><defs><style>.cls-1{fill:#ffffe3;}.cls-2{fill:#07c7b0;}</style></defs><g><path class="cls-1" d="M168.51,56.9c-32.97,6.13-64.63,0-97.6-4.08-15.83-2.04-30.34,0-44.85,3.06-9.23,2.04-15.83-1.02-21.1-7.15C-1.64,38.52-.32,27.29,6.28,18.1,23.43-2.32,56.4-.28,82.78,1.77c15.83,1.02,29.02,5.11,44.85,7.15,15.83,1.02,30.34,0,44.85-4.08,10.55-2.04,19.78,2.04,23.74,9.19,3.96,7.15,3.96,14.29,1.32,21.44-5.28,10.21-15.83,18.38-29.02,21.44h0Z"/><path class="cls-2" d="M138.71,60c-17.56,0-34.96-2.33-53-4.75-4.87-.65-9.9-1.33-14.9-1.95-16.44-2.12-31.14,.21-44.59,3.05-8.73,1.93-15.86-.47-21.78-7.35C-1.91,39.18-1.43,27.84,5.74,17.86,23.51-3.31,57.8-.66,82.84,1.28c9.27,.6,17.46,2.21,26.13,3.91,5.99,1.18,12.18,2.39,18.75,3.24,16.71,1.07,30.87-.21,44.54-4.06,10.44-2.03,20.27,1.78,24.52,9.45,3.79,6.84,4.23,13.97,1.35,21.78-5.5,10.65-16.5,18.77-29.44,21.78h-.03c-10.12,1.89-20.06,2.63-29.94,2.63Zm-80.87-8.5c4.26,0,8.65,.25,13.17,.83,5,.62,10.03,1.29,14.91,1.95,28.07,3.76,54.59,7.32,82.44,2.15,12.58-2.93,23.27-10.83,28.6-21.15,2.78-7.53,2.35-14.44-1.31-21.06-4-7.22-13.25-10.8-23.02-8.91-13.78,3.88-28.12,5.19-45.04,4.1-6.67-.86-12.89-2.08-18.9-3.26-8.62-1.69-16.76-3.29-25.94-3.89C57.99,.34,24.14-2.28,6.8,18.37-.14,28.03-.61,39.03,5.51,48.51c5.62,6.52,12.1,8.73,20.38,6.9,9.9-2.09,20.48-3.91,31.95-3.91Z"/></g><g><path class="cls-2" d="M50.07,36.94c.17-3.2,.26-6.05,.26-8.56s0-4.15-.02-4.94c1.47-.69,2.99-1.04,4.58-1.04,1.17,0,2.16,.37,2.95,1.12,.79,.75,1.19,1.8,1.19,3.16,0,1.57-1.11,3.09-3.34,4.54,1.21,1.52,2.45,3.19,3.72,5.02l-1.92,1.42c-.84-1.27-2.35-3.33-4.52-6.2-.04,2.05-.1,3.98-.18,5.78l-2.72-.3Zm5.48-8.57c.69-.69,1.04-1.31,1.04-1.87s-.16-.99-.49-1.3c-.33-.31-.76-.46-1.29-.46s-1.12,.11-1.76,.34c0,2.25,0,3.93-.02,5.02,.99-.47,1.83-1.04,2.52-1.73Z"/><path class="cls-2" d="M63.01,35.32c.51,0,1.05-.49,1.62-1.46l1.52,.9c-.25,.44-.5,.81-.73,1.12s-.58,.6-1.05,.88c-.47,.28-.99,.42-1.56,.42-.84,0-1.55-.36-2.12-1.07s-.86-1.68-.86-2.89c0-1.39,.25-2.68,.74-3.88,.27-.63,.65-1.14,1.15-1.53s1.01-.59,1.54-.59,.95,.08,1.27,.25,.58,.35,.77,.56c.19,.21,.36,.51,.51,.91,.15,.4,.25,.73,.31,.98,.06,.25,.11,.62,.15,1.1,.05,.64,.08,1.22,.08,1.74-1.07,.29-2.45,.56-4.14,.8,.04,.53,.13,.96,.28,1.28,.15,.32,.32,.48,.52,.48Zm.44-6.14c-.29,0-.56,.29-.79,.88s-.37,1.27-.41,2.04c.71-.15,1.32-.29,1.84-.42,0-1.67-.21-2.5-.64-2.5Z"/><path class="cls-2" d="M71.41,30.46c0-.8-.2-1.2-.6-1.2-.2,0-.38,.1-.55,.29-.17,.19-.25,.45-.25,.78s.06,.6,.19,.81,.36,.42,.7,.63,.61,.37,.8,.5,.42,.3,.69,.53c.55,.48,.82,1.1,.82,1.85s-.28,1.36-.85,1.83c-.57,.47-1.2,.7-1.91,.7s-1.34-.19-1.91-.57-1.02-.86-1.37-1.43l1.08-1.22c.53,.92,1.09,1.38,1.68,1.38,.2,0,.37-.06,.52-.17s.22-.27,.22-.47c0-.43-.31-.82-.92-1.18-.65-.36-1.17-.76-1.54-1.2-.37-.44-.56-1.06-.56-1.87s.33-1.53,1-2.18c.67-.65,1.38-.97,2.15-.97s1.37,.26,1.82,.79c.45,.53,.67,1.24,.67,2.13,0,.36-.04,.75-.12,1.16l-1.82-.16c.04-.31,.06-.56,.06-.76Z"/><path class="cls-2" d="M77.29,35.32c.51,0,1.05-.49,1.62-1.46l1.52,.9c-.25,.44-.5,.81-.73,1.12s-.58,.6-1.05,.88c-.47,.28-.99,.42-1.56,.42-.84,0-1.55-.36-2.12-1.07s-.86-1.68-.86-2.89c0-1.39,.25-2.68,.74-3.88,.27-.63,.65-1.14,1.15-1.53s1.01-.59,1.54-.59,.95,.08,1.27,.25,.58,.35,.77,.56c.19,.21,.36,.51,.51,.91,.15,.4,.25,.73,.31,.98,.06,.25,.11,.62,.15,1.1,.05,.64,.08,1.22,.08,1.74-1.07,.29-2.45,.56-4.14,.8,.04,.53,.13,.96,.28,1.28,.15,.32,.32,.48,.52,.48Zm.44-6.14c-.29,0-.56,.29-.79,.88s-.37,1.27-.41,2.04c.71-.15,1.32-.29,1.84-.42,0-1.67-.21-2.5-.64-2.5Z"/><path class="cls-2" d="M85.73,29.54c-.56,0-.98,.71-1.26,2.12,.03,.93,.04,1.83,.04,2.68s-.03,1.81-.08,2.88l-2.32-.2c.04-1.96,.06-3.04,.06-3.24,0-2.47-.12-4.35-.36-5.66l1.5,.16c.09,.39,.2,.73,.32,1.02,.65-1.4,1.31-2.1,1.98-2.1,.55,0,1.03,.24,1.44,.72l-.52,1.84c-.21-.15-.48-.22-.8-.22Z"/><path class="cls-2" d="M92.11,37.08l-2.56-.24c-.99-3.97-1.59-7.09-1.8-9.34l2.28,.2c.23,2.45,.54,4.65,.94,6.6,.55-2,1.13-4.51,1.74-7.54l2.16,.18c-.76,3.51-1.68,6.89-2.76,10.14Z"/><path class="cls-2" d="M96.73,28.21c.56-.73,1.29-1.09,2.2-1.09s1.58,.38,2.01,1.13c.43,.75,.65,1.82,.65,3.21s-.08,3.3-.24,5.74l-1.68-.14-.16-.64c-.63,.36-1.27,.54-1.92,.54s-1.19-.22-1.62-.65-.64-1.06-.64-1.87,.4-1.51,1.21-2.1,1.74-.89,2.79-.92v-.54c0-1.05-.25-1.58-.76-1.58-.25,0-.48,.18-.69,.53-.21,.35-.36,.76-.45,1.21l-1.84-.18c.2-1.04,.58-1.92,1.14-2.65Zm.64,6.35c0,.43,.25,.64,.76,.64,.35,0,.71-.08,1.1-.24l.04-1.68c-.63,.05-1.1,.21-1.42,.47-.32,.26-.48,.53-.48,.81Z"/><path class="cls-2" d="M107.25,29.54c-.56,0-.98,.71-1.26,2.12,.03,.93,.04,1.83,.04,2.68s-.03,1.81-.08,2.88l-2.32-.2c.04-1.96,.06-3.04,.06-3.24,0-2.47-.12-4.35-.36-5.66l1.5,.16c.09,.39,.2,.73,.32,1.02,.65-1.4,1.31-2.1,1.98-2.1,.55,0,1.03,.24,1.44,.72l-.52,1.84c-.21-.15-.48-.22-.8-.22Z"/><path class="cls-2" d="M115.39,28.21c.56-.73,1.29-1.09,2.2-1.09s1.58,.38,2.01,1.13c.43,.75,.65,1.82,.65,3.21s-.08,3.3-.24,5.74l-1.68-.14-.16-.64c-.63,.36-1.27,.54-1.92,.54s-1.19-.22-1.62-.65-.64-1.06-.64-1.87,.4-1.51,1.21-2.1c.81-.59,1.74-.89,2.79-.92v-.54c0-1.05-.25-1.58-.76-1.58-.25,0-.48,.18-.69,.53-.21,.35-.36,.76-.45,1.21l-1.84-.18c.2-1.04,.58-1.92,1.14-2.65Zm.64,6.35c0,.43,.25,.64,.76,.64,.35,0,.71-.08,1.1-.24l.04-1.68c-.63,.05-1.1,.21-1.42,.47-.32,.26-.48,.53-.48,.81Z"/><path class="cls-2" d="M124.75,28.62c.61-.76,1.22-1.14,1.81-1.14s1.08,.2,1.45,.6c.65,.69,.98,1.57,.98,2.64,0,1.93-.07,3.95-.22,6.06l-2.32-.22c.09-1.96,.14-3.89,.14-5.78,0-.71-.18-1.06-.54-1.06-.43,0-.89,.93-1.38,2.8-.03,1.33-.09,2.85-.2,4.54l-2.34-.22c.17-2.29,.26-4.85,.26-7.68s-.05-5.1-.14-6.82l2.34,.22c.11,1.88,.16,3.9,.16,6.06Z"/><path class="cls-2" d="M130.11,32.98c0-1.24,.25-2.45,.76-3.64,.27-.6,.64-1.09,1.13-1.47,.49-.38,1.03-.57,1.63-.57s1.12,.14,1.55,.41c.43,.27,.76,.64,.99,1.09,.44,.89,.66,1.87,.66,2.92,0,1.45-.3,2.74-.89,3.87-.59,1.13-1.42,1.69-2.49,1.69-2.23,0-3.34-1.43-3.34-4.3Zm2.34,.18c0,1.51,.33,2.26,1,2.26,.29,0,.54-.42,.74-1.27,.2-.85,.3-1.66,.3-2.43,0-1.71-.28-2.56-.84-2.56-.36,0-.65,.46-.87,1.37-.22,.91-.33,1.79-.33,2.63Z"/><path class="cls-2" d="M141.77,29.54c-.56,0-.98,.71-1.26,2.12,.03,.93,.04,1.83,.04,2.68s-.03,1.81-.08,2.88l-2.32-.2c.04-1.96,.06-3.04,.06-3.24,0-2.47-.12-4.35-.36-5.66l1.5,.16c.09,.39,.2,.73,.32,1.02,.65-1.4,1.31-2.1,1.98-2.1,.55,0,1.03,.24,1.44,.72l-.52,1.84c-.21-.15-.48-.22-.8-.22Z"/><path class="cls-2" d="M145.07,28.21c.56-.73,1.29-1.09,2.2-1.09s1.58,.38,2.01,1.13c.43,.75,.65,1.82,.65,3.21s-.08,3.3-.24,5.74l-1.68-.14-.16-.64c-.63,.36-1.27,.54-1.92,.54s-1.19-.22-1.62-.65-.64-1.06-.64-1.87,.4-1.51,1.21-2.1,1.74-.89,2.79-.92v-.54c0-1.05-.25-1.58-.76-1.58-.25,0-.48,.18-.69,.53-.21,.35-.36,.76-.45,1.21l-1.84-.18c.2-1.04,.58-1.92,1.14-2.65Zm.64,6.35c0,.43,.25,.64,.76,.64,.35,0,.71-.08,1.1-.24l.04-1.68c-.63,.05-1.1,.21-1.42,.47-.32,.26-.48,.53-.48,.81Z"/></g></svg>