<svg xmlns="http://www.w3.org/2000/svg" id="a" viewBox="0 0 70 50"><defs><style>.b{fill:#ffffe3}.c{fill:#f66538}</style></defs><rect width="70" height="50" x="0" class="c"/><g><path d="M49.05,11.08h-3.7c0-.72-.59-1.33-1.43-1.58-.27-.08-.56-.13-.88-.13s-.61,.05-.88,.13c-.84,.25-1.43,.87-1.43,1.58h-11.61c0-.72-.59-1.32-1.43-1.58-.27-.08-.57-.13-.88-.13s-.61,.05-.88,.13c-.84,.25-1.43,.87-1.43,1.58h-3.56c-1.98,0-3.59,1.55-3.59,3.46v1.56H52.64v-1.56c0-1.91-1.61-3.46-3.59-3.46Zm-21.36,3.41h-1.76v-3.41h1.76v3.41Zm16.23,0h-1.76v-3.41h1.76v3.41Z" class="b"/><path d="M48.55,40.64H21.45c-2.26,0-4.09-1.83-4.09-4.09V17.15H52.64v19.39c0,2.26-1.83,4.09-4.09,4.09ZM18.62,18.42v18.13c0,1.56,1.27,2.83,2.83,2.83h27.1c1.56,0,2.83-1.27,2.83-2.83V18.42H18.62Z" class="b"/><polygon points="41.2 24.49 32.5 32.72 28.66 28.2 30.4 26.67 32.73 29.3 39.7 22.86 41.2 24.49" class="b"/></g></svg>