<?xml version="1.0" encoding="UTF-8"?><svg id="Capa_1" xmlns="http://www.w3.org/2000/svg" viewBox="0 0 200 60"><defs><style>.cls-1{fill:#ffffe3;}.cls-2{fill:#07c7b0;}</style></defs><g><path class="cls-1" d="M176.41,55.5c-50.94-2.26-101.89,5.87-152.83,3.61C10.83,58.58,.5,47.37,.5,35.13v-10.26c0-12.25,10.34-20.9,23.09-20.37C74.53,6.76,125.47-1.37,176.41,.89c12.75,.54,23.09,11.74,23.09,23.98v10.26c0,12.25-10.34,20.91-23.09,20.37Z"/><path class="cls-2" d="M42.46,60c-6.31,0-12.61-.12-18.89-.4C10.79,59.07,0,47.86,0,35.13v-10.26C0,19.19,2.22,13.95,6.26,10.13c4.46-4.23,10.61-6.41,17.34-6.12,25.45,1.13,51.33-.36,76.36-1.81C125.03,.76,150.94-.73,176.44,.4c12.77,.54,23.56,11.74,23.56,24.47v10.26c0,5.68-2.23,10.92-6.26,14.74-4.46,4.23-10.62,6.4-17.34,6.12h0c-25.45-1.13-51.33,.36-76.37,1.81-18.88,1.09-38.26,2.2-57.57,2.2ZM22.45,4.97c-6.01,0-11.48,2.06-15.49,5.87C3.11,14.48,1,19.46,1,24.87v10.26c0,12.22,10.35,22.97,22.61,23.49,25.45,1.13,51.33-.36,76.36-1.81,25.06-1.44,50.97-2.94,76.47-1.81h0c6.47,.29,12.35-1.81,16.61-5.84,3.84-3.64,5.96-8.62,5.96-14.03v-10.26c0-12.22-10.36-22.97-22.61-23.49-25.45-1.13-51.33,.36-76.36,1.81-25.06,1.44-50.97,2.94-76.47,1.81-.37-.02-.75-.02-1.12-.02Z"/></g><g><path class="cls-2" d="M71.37,35.06c.17-3.2,.26-6.05,.26-8.56s0-4.15-.02-4.94c1.47-.69,2.99-1.04,4.58-1.04,1.17,0,2.16,.37,2.95,1.12,.79,.75,1.19,1.8,1.19,3.16,0,1.57-1.11,3.09-3.34,4.54,1.21,1.52,2.45,3.19,3.72,5.02l-1.92,1.42c-.84-1.27-2.35-3.33-4.52-6.2-.04,2.05-.1,3.98-.18,5.78l-2.72-.3Zm5.48-8.57c.69-.69,1.04-1.31,1.04-1.87s-.16-.99-.49-1.3c-.33-.31-.76-.46-1.29-.46s-1.12,.11-1.76,.34c0,2.25,0,3.93-.02,5.02,.99-.47,1.83-1.04,2.52-1.73Z"/><path class="cls-2" d="M84.31,33.44c.51,0,1.05-.49,1.62-1.46l1.52,.9c-.25,.44-.5,.81-.73,1.12s-.58,.6-1.05,.88c-.47,.28-.99,.42-1.56,.42-.84,0-1.55-.36-2.12-1.07s-.86-1.68-.86-2.89c0-1.39,.25-2.68,.74-3.88,.27-.63,.65-1.14,1.15-1.53s1.01-.59,1.54-.59,.95,.08,1.27,.25,.58,.35,.77,.56c.19,.21,.36,.51,.51,.91,.15,.4,.25,.73,.31,.98,.06,.25,.11,.62,.15,1.1,.05,.64,.08,1.22,.08,1.74-1.07,.29-2.45,.56-4.14,.8,.04,.53,.13,.96,.28,1.28,.15,.32,.32,.48,.52,.48Zm.44-6.14c-.29,0-.56,.29-.79,.88s-.37,1.27-.41,2.04c.71-.15,1.32-.29,1.84-.42,0-1.67-.21-2.5-.64-2.5Z"/><path class="cls-2" d="M92.71,28.59c0-.8-.2-1.2-.6-1.2-.2,0-.38,.1-.55,.29-.17,.19-.25,.45-.25,.78s.06,.6,.19,.81,.36,.42,.7,.63,.61,.37,.8,.5,.42,.3,.69,.53c.55,.48,.82,1.1,.82,1.85s-.28,1.36-.85,1.83c-.57,.47-1.2,.7-1.91,.7s-1.34-.19-1.91-.57-1.02-.86-1.37-1.43l1.08-1.22c.53,.92,1.09,1.38,1.68,1.38,.2,0,.37-.06,.52-.17s.22-.27,.22-.47c0-.43-.31-.82-.92-1.18-.65-.36-1.17-.76-1.54-1.2-.37-.44-.56-1.06-.56-1.87s.33-1.53,1-2.18c.67-.65,1.38-.97,2.15-.97s1.37,.26,1.82,.79c.45,.53,.67,1.24,.67,2.13,0,.36-.04,.75-.12,1.16l-1.82-.16c.04-.31,.06-.56,.06-.76Z"/><path class="cls-2" d="M98.59,33.44c.51,0,1.05-.49,1.62-1.46l1.52,.9c-.25,.44-.5,.81-.73,1.12s-.58,.6-1.05,.88c-.47,.28-.99,.42-1.56,.42-.84,0-1.55-.36-2.12-1.07s-.86-1.68-.86-2.89c0-1.39,.25-2.68,.74-3.88,.27-.63,.65-1.14,1.15-1.53s1.01-.59,1.54-.59,.95,.08,1.27,.25,.58,.35,.77,.56c.19,.21,.36,.51,.51,.91,.15,.4,.25,.73,.31,.98,.06,.25,.11,.62,.15,1.1,.05,.64,.08,1.22,.08,1.74-1.07,.29-2.45,.56-4.14,.8,.04,.53,.13,.96,.28,1.28,.15,.32,.32,.48,.52,.48Zm.44-6.14c-.29,0-.56,.29-.79,.88s-.37,1.27-.41,2.04c.71-.15,1.32-.29,1.84-.42,0-1.67-.21-2.5-.64-2.5Z"/><path class="cls-2" d="M107.03,27.66c-.56,0-.98,.71-1.26,2.12,.03,.93,.04,1.83,.04,2.68s-.03,1.81-.08,2.88l-2.32-.2c.04-1.96,.06-3.04,.06-3.24,0-2.47-.12-4.35-.36-5.66l1.5,.16c.09,.39,.2,.73,.32,1.02,.65-1.4,1.31-2.1,1.98-2.1,.55,0,1.03,.24,1.44,.72l-.52,1.84c-.21-.15-.48-.22-.8-.22Z"/><path class="cls-2" d="M113.41,35.2l-2.56-.24c-.99-3.97-1.59-7.09-1.8-9.34l2.28,.2c.23,2.45,.54,4.65,.94,6.6,.55-2,1.13-4.51,1.74-7.54l2.16,.18c-.76,3.51-1.68,6.89-2.76,10.14Z"/><path class="cls-2" d="M118.03,26.34c.56-.73,1.29-1.09,2.2-1.09s1.58,.38,2.01,1.13c.43,.75,.65,1.82,.65,3.21s-.08,3.3-.24,5.74l-1.68-.14-.16-.64c-.63,.36-1.27,.54-1.92,.54s-1.19-.22-1.62-.65-.64-1.06-.64-1.87,.4-1.51,1.21-2.1,1.74-.89,2.79-.92v-.54c0-1.05-.25-1.58-.76-1.58-.25,0-.48,.18-.69,.53-.21,.35-.36,.76-.45,1.21l-1.84-.18c.2-1.04,.58-1.92,1.14-2.65Zm.64,6.35c0,.43,.25,.64,.76,.64,.35,0,.71-.08,1.1-.24l.04-1.68c-.63,.05-1.1,.21-1.42,.47-.32,.26-.48,.53-.48,.81Z"/><path class="cls-2" d="M128.55,27.66c-.56,0-.98,.71-1.26,2.12,.03,.93,.04,1.83,.04,2.68s-.03,1.81-.08,2.88l-2.32-.2c.04-1.96,.06-3.04,.06-3.24,0-2.47-.12-4.35-.36-5.66l1.5,.16c.09,.39,.2,.73,.32,1.02,.65-1.4,1.31-2.1,1.98-2.1,.55,0,1.03,.24,1.44,.72l-.52,1.84c-.21-.15-.48-.22-.8-.22Z"/></g></svg>