<svg xmlns="http://www.w3.org/2000/svg" id="Capa_1" viewBox="0 0 200 60"><defs><style>.cls-1{fill:#ffffe3}.cls-2{fill:#07c7b0}</style></defs><path d="M176.8,55.92c-51.2-2.3-102.4,5.97-153.59,3.67C10.39,59.05,0,47.66,0,35.21v-10.43C0,12.33,10.39,3.53,23.2,4.08,74.4,6.38,125.6-1.89,176.8,.41c12.82,.55,23.2,11.93,23.2,24.38v10.43c0,12.45-10.39,21.25-23.2,20.71Z" class="cls-2"/><g><path d="M71.37,35.06c.17-3.2,.26-6.05,.26-8.56s0-4.15-.02-4.94c1.47-.69,2.99-1.04,4.58-1.04,1.17,0,2.16,.37,2.95,1.12,.79,.75,1.19,1.8,1.19,3.16,0,1.57-1.11,3.09-3.34,4.54,1.21,1.52,2.45,3.19,3.72,5.02l-1.92,1.42c-.84-1.27-2.35-3.33-4.52-6.2-.04,2.05-.1,3.98-.18,5.78l-2.72-.3Zm5.48-8.57c.69-.69,1.04-1.31,1.04-1.87s-.16-.99-.49-1.3c-.33-.31-.76-.46-1.29-.46s-1.12,.11-1.76,.34c0,2.25,0,3.93-.02,5.02,.99-.47,1.83-1.04,2.52-1.73Z" class="cls-1"/><path d="M84.31,33.44c.51,0,1.05-.49,1.62-1.46l1.52,.9c-.25,.44-.5,.81-.73,1.12-.23,.31-.58,.6-1.05,.88-.47,.28-.99,.42-1.56,.42-.84,0-1.55-.36-2.12-1.07s-.86-1.68-.86-2.89c0-1.39,.25-2.68,.74-3.88,.27-.63,.65-1.14,1.15-1.53s1.01-.59,1.54-.59,.95,.08,1.27,.25,.58,.35,.77,.56c.19,.21,.36,.51,.51,.91,.15,.4,.25,.73,.31,.98,.06,.25,.11,.62,.15,1.1,.05,.64,.08,1.22,.08,1.74-1.07,.29-2.45,.56-4.14,.8,.04,.53,.13,.96,.28,1.28,.15,.32,.32,.48,.52,.48Zm.44-6.14c-.29,0-.56,.29-.79,.88-.23,.59-.37,1.27-.41,2.04,.71-.15,1.32-.29,1.84-.42,0-1.67-.21-2.5-.64-2.5Z" class="cls-1"/><path d="M92.71,28.59c0-.8-.2-1.2-.6-1.2-.2,0-.38,.1-.55,.29-.17,.19-.25,.45-.25,.78s.06,.6,.19,.81,.36,.42,.7,.63,.61,.37,.8,.5,.42,.3,.69,.53c.55,.48,.82,1.1,.82,1.85s-.28,1.36-.85,1.83-1.2,.7-1.91,.7-1.34-.19-1.91-.57-1.02-.86-1.37-1.43l1.08-1.22c.53,.92,1.09,1.38,1.68,1.38,.2,0,.37-.06,.52-.17s.22-.27,.22-.47c0-.43-.31-.82-.92-1.18-.65-.36-1.17-.76-1.54-1.2-.37-.44-.56-1.06-.56-1.87s.33-1.53,1-2.18,1.38-.97,2.15-.97,1.37,.26,1.82,.79c.45,.53,.67,1.24,.67,2.13,0,.36-.04,.75-.12,1.16l-1.82-.16c.04-.31,.06-.56,.06-.76Z" class="cls-1"/><path d="M98.59,33.44c.51,0,1.05-.49,1.62-1.46l1.52,.9c-.25,.44-.5,.81-.73,1.12-.23,.31-.58,.6-1.05,.88-.47,.28-.99,.42-1.56,.42-.84,0-1.55-.36-2.12-1.07s-.86-1.68-.86-2.89c0-1.39,.25-2.68,.74-3.88,.27-.63,.65-1.14,1.15-1.53s1.01-.59,1.54-.59,.95,.08,1.27,.25,.58,.35,.77,.56c.19,.21,.36,.51,.51,.91,.15,.4,.25,.73,.31,.98,.06,.25,.11,.62,.15,1.1,.05,.64,.08,1.22,.08,1.74-1.07,.29-2.45,.56-4.14,.8,.04,.53,.13,.96,.28,1.28,.15,.32,.32,.48,.52,.48Zm.44-6.14c-.29,0-.56,.29-.79,.88-.23,.59-.37,1.27-.41,2.04,.71-.15,1.32-.29,1.84-.42,0-1.67-.21-2.5-.64-2.5Z" class="cls-1"/><path d="M107.03,27.66c-.56,0-.98,.71-1.26,2.12,.03,.93,.04,1.83,.04,2.68s-.03,1.81-.08,2.88l-2.32-.2c.04-1.96,.06-3.04,.06-3.24,0-2.47-.12-4.35-.36-5.66l1.5,.16c.09,.39,.2,.73,.32,1.02,.65-1.4,1.31-2.1,1.98-2.1,.55,0,1.03,.24,1.44,.72l-.52,1.84c-.21-.15-.48-.22-.8-.22Z" class="cls-1"/><path d="M113.41,35.2l-2.56-.24c-.99-3.97-1.59-7.09-1.8-9.34l2.28,.2c.23,2.45,.54,4.65,.94,6.6,.55-2,1.13-4.51,1.74-7.54l2.16,.18c-.76,3.51-1.68,6.89-2.76,10.14Z" class="cls-1"/><path d="M118.03,26.34c.56-.73,1.29-1.09,2.2-1.09s1.58,.38,2.01,1.13c.43,.75,.65,1.82,.65,3.21s-.08,3.3-.24,5.74l-1.68-.14-.16-.64c-.63,.36-1.27,.54-1.92,.54s-1.19-.22-1.62-.65c-.43-.43-.64-1.06-.64-1.87s.4-1.51,1.21-2.1c.81-.59,1.74-.89,2.79-.92v-.54c0-1.05-.25-1.58-.76-1.58-.25,0-.48,.18-.69,.53-.21,.35-.36,.76-.45,1.21l-1.84-.18c.2-1.04,.58-1.92,1.14-2.65Zm.64,6.35c0,.43,.25,.64,.76,.64,.35,0,.71-.08,1.1-.24l.04-1.68c-.63,.05-1.1,.21-1.42,.47-.32,.26-.48,.53-.48,.81Z" class="cls-1"/><path d="M128.55,27.66c-.56,0-.98,.71-1.26,2.12,.03,.93,.04,1.83,.04,2.68s-.03,1.81-.08,2.88l-2.32-.2c.04-1.96,.06-3.04,.06-3.24,0-2.47-.12-4.35-.36-5.66l1.5,.16c.09,.39,.2,.73,.32,1.02,.65-1.4,1.31-2.1,1.98-2.1,.55,0,1.03,.24,1.44,.72l-.52,1.84c-.21-.15-.48-.22-.8-.22Z" class="cls-1"/></g></svg>