<?xml version="1.0" encoding="UTF-8"?><svg id="a" xmlns="http://www.w3.org/2000/svg" viewBox="0 0 135 50"><defs><style>.b{fill:#ffffe3;}.c{fill:#f66538;}</style></defs><path class="b" d="M118.26,50H16.74c-5.31,0-2.13-4.86-2.75-10.86C13.71,29.71,.3,20.29,.02,10.86-.6,4.86,11.29,0,16.74,0H118.26c5.31,0,2.13,4.86,2.75,10.86,.28,9.43,13.69,18.85,13.96,28.28,.62,6-11.27,10.86-16.71,10.86Z"/><g><path class="c" d="M19.71,23.27c.17-.65,.26-1.2,.26-1.64s-.12-.8-.36-1.09c-.24-.29-.55-.43-.93-.43s-.7,.19-.95,.56c-.25,.37-.38,.8-.38,1.28,0,.93,.53,1.73,1.6,2.4,1.07,.69,1.79,1.19,2.18,1.5,.39,.31,.66,.59,.82,.84,.4,.65,.6,1.33,.6,2.02,0,1.2-.4,2.16-1.21,2.87s-1.72,1.07-2.73,1.07c-1.2,0-2.21-.51-3.02-1.52-.59-.73-1.13-1.65-1.62-2.74l1.94-.94c.31,.8,.69,1.48,1.15,2.03,.46,.55,.95,.83,1.47,.83,.33,0,.63-.11,.9-.32s.4-.54,.4-.97-.17-.84-.5-1.21c-.33-.37-.78-.75-1.34-1.14s-.99-.7-1.3-.95c-.31-.25-.65-.56-1.02-.95-.71-.75-1.06-1.7-1.06-2.87s.41-2.15,1.22-2.94c.81-.79,1.78-1.19,2.9-1.19s2.06,.43,2.83,1.3c.77,.87,1.15,1.76,1.15,2.67s-.17,1.7-.52,2.35l-2.48-.82Z"/><path class="c" d="M24.25,28.23c0-1.24,.25-2.45,.76-3.64,.27-.6,.64-1.09,1.13-1.47,.49-.38,1.03-.57,1.63-.57s1.12,.14,1.55,.41,.76,.64,.99,1.09c.44,.89,.66,1.87,.66,2.92,0,1.45-.3,2.74-.89,3.87-.59,1.13-1.42,1.69-2.49,1.69-2.23,0-3.34-1.43-3.34-4.3Zm2.34,.18c0,1.51,.33,2.26,1,2.26,.29,0,.54-.42,.74-1.27,.2-.85,.3-1.66,.3-2.43,0-1.71-.28-2.56-.84-2.56-.36,0-.65,.46-.87,1.37-.22,.91-.33,1.79-.33,2.63Z"/><path class="c" d="M37.83,22.59c.64,0,1.12,.35,1.43,1.06,.31,.71,.47,1.54,.47,2.51s-.1,1.92-.31,2.87c-.21,.95-.53,1.75-.98,2.41-.45,.66-.96,.99-1.53,.99-.84,0-1.53-.37-2.08-1.12,0,.19,.01,.45,.04,.8l-1.76-.18c-.08-1.6-.12-3.75-.12-6.45s.07-5.41,.22-8.13l2.28,.2c-.16,2.63-.24,5.01-.24,7.16,.89-1.41,1.75-2.12,2.58-2.12Zm-2.58,5.54l.02,1.56c.16,.23,.3,.38,.42,.47s.3,.13,.54,.13c.33,0,.63-.37,.88-1.11,.25-.74,.38-1.44,.38-2.11s-.04-1.15-.11-1.44-.23-.44-.47-.44c-.51,0-1.06,.98-1.66,2.94Z"/><path class="c" d="M45.73,24.79c-.56,0-.98,.71-1.26,2.12,.03,.93,.04,1.83,.04,2.68s-.03,1.81-.08,2.88l-2.32-.2c.04-1.96,.06-3.04,.06-3.24,0-2.47-.12-4.35-.36-5.66l1.5,.16c.09,.39,.2,.73,.32,1.02,.65-1.4,1.31-2.1,1.98-2.1,.55,0,1.03,.24,1.44,.72l-.52,1.84c-.21-.15-.48-.22-.8-.22Z"/><path class="c" d="M51.25,30.57c.51,0,1.05-.49,1.62-1.46l1.52,.9c-.25,.44-.5,.81-.73,1.12s-.58,.6-1.05,.88c-.47,.28-.99,.42-1.56,.42-.84,0-1.55-.36-2.12-1.07-.57-.71-.86-1.68-.86-2.89,0-1.39,.25-2.68,.74-3.88,.27-.63,.65-1.14,1.15-1.53,.5-.39,1.01-.59,1.54-.59s.95,.08,1.27,.25c.32,.17,.58,.35,.77,.56,.19,.21,.36,.51,.51,.91,.15,.4,.25,.73,.31,.98s.11,.62,.15,1.1c.05,.64,.08,1.22,.08,1.74-1.07,.29-2.45,.56-4.14,.8,.04,.53,.13,.96,.28,1.28,.15,.32,.32,.48,.52,.48Zm.44-6.14c-.29,0-.56,.29-.79,.88-.23,.59-.37,1.27-.41,2.04,.71-.15,1.32-.29,1.84-.42,0-1.67-.21-2.5-.64-2.5Z"/><path class="c" d="M66.09,22.49c1.76,0,2.64,1.47,2.64,4.4,0,1.55-.09,3.19-.26,4.92l-2.34-.22c.15-1.52,.22-3.06,.22-4.61s-.22-2.33-.66-2.33c-.21,0-.49,.54-.82,1.61-.33,1.07-.54,2.12-.62,3.15,.03,.55,.08,1.53,.16,2.96l-2.34-.22c-.15-1.88-.22-3.53-.22-4.96s.04-2.71,.12-3.84l1.48,.16c.03,.11,.13,.54,.3,1.3,.77-1.55,1.55-2.32,2.34-2.32Z"/><path class="c" d="M70.51,28.23c0-1.24,.25-2.45,.76-3.64,.27-.6,.64-1.09,1.13-1.47,.49-.38,1.03-.57,1.63-.57s1.12,.14,1.55,.41,.76,.64,.99,1.09c.44,.89,.66,1.87,.66,2.92,0,1.45-.3,2.74-.89,3.87-.59,1.13-1.42,1.69-2.49,1.69-2.23,0-3.34-1.43-3.34-4.3Zm2.34,.18c0,1.51,.33,2.26,1,2.26,.29,0,.54-.42,.74-1.27,.2-.85,.3-1.66,.3-2.43,0-1.71-.28-2.56-.84-2.56-.36,0-.65,.46-.87,1.37-.22,.91-.33,1.79-.33,2.63Z"/><path class="c" d="M82.73,25.71c0-.8-.2-1.2-.6-1.2-.2,0-.38,.1-.55,.29s-.25,.45-.25,.78,.06,.6,.19,.81c.13,.21,.36,.42,.7,.63,.34,.21,.61,.37,.8,.5,.19,.13,.42,.3,.69,.53,.55,.48,.82,1.1,.82,1.85s-.28,1.36-.85,1.83c-.57,.47-1.2,.7-1.91,.7s-1.34-.19-1.91-.57c-.57-.38-1.02-.86-1.37-1.43l1.08-1.22c.53,.92,1.09,1.38,1.68,1.38,.2,0,.37-.06,.52-.17,.15-.11,.22-.27,.22-.47,0-.43-.31-.82-.92-1.18-.65-.36-1.17-.76-1.54-1.2-.37-.44-.56-1.06-.56-1.87s.33-1.53,1-2.18c.67-.65,1.38-.97,2.15-.97s1.37,.26,1.82,.79c.45,.53,.67,1.24,.67,2.13,0,.36-.04,.75-.12,1.16l-1.82-.16c.04-.31,.06-.56,.06-.76Z"/><path class="c" d="M86.01,28.23c0-1.24,.25-2.45,.76-3.64,.27-.6,.64-1.09,1.13-1.47,.49-.38,1.03-.57,1.63-.57s1.12,.14,1.55,.41,.76,.64,.99,1.09c.44,.89,.66,1.87,.66,2.92,0,1.45-.3,2.74-.89,3.87-.59,1.13-1.42,1.69-2.49,1.69-2.23,0-3.34-1.43-3.34-4.3Zm2.34,.18c0,1.51,.33,2.26,1,2.26,.29,0,.54-.42,.74-1.27,.2-.85,.3-1.66,.3-2.43,0-1.71-.28-2.56-.84-2.56-.36,0-.65,.46-.87,1.37-.22,.91-.33,1.79-.33,2.63Z"/><path class="c" d="M99.19,23.65v1.9c-.64,0-1.13,0-1.48,.02-.04,1.33-.06,3.57-.06,6.72l-2.36-.22c0-2.33,.02-4.45,.06-6.34-.2,0-.58,.03-1.14,.1l-.3-1.64c.32-.07,.82-.15,1.5-.26,.03-.99,.08-2.43,.16-4.32l2.38,.22c-.08,1.32-.14,2.6-.18,3.84,.33-.01,.81-.02,1.42-.02Z"/><path class="c" d="M104.61,24.79c-.56,0-.98,.71-1.26,2.12,.03,.93,.04,1.83,.04,2.68s-.03,1.81-.08,2.88l-2.32-.2c.04-1.96,.06-3.04,.06-3.24,0-2.47-.12-4.35-.36-5.66l1.5,.16c.09,.39,.2,.73,.32,1.02,.65-1.4,1.31-2.1,1.98-2.1,.55,0,1.03,.24,1.44,.72l-.52,1.84c-.21-.15-.48-.22-.8-.22Z"/><path class="c" d="M106.93,28.23c0-1.24,.25-2.45,.76-3.64,.27-.6,.64-1.09,1.13-1.47,.49-.38,1.03-.57,1.63-.57s1.12,.14,1.55,.41,.76,.64,.99,1.09c.44,.89,.66,1.87,.66,2.92,0,1.45-.3,2.74-.89,3.87-.59,1.13-1.42,1.69-2.49,1.69-2.23,0-3.34-1.43-3.34-4.3Zm2.34,.18c0,1.51,.33,2.26,1,2.26,.29,0,.54-.42,.74-1.27,.2-.85,.3-1.66,.3-2.43,0-1.71-.28-2.56-.84-2.56-.36,0-.65,.46-.87,1.37-.22,.91-.33,1.79-.33,2.63Z"/><path class="c" d="M119.15,25.71c0-.8-.2-1.2-.6-1.2-.2,0-.38,.1-.55,.29s-.25,.45-.25,.78,.06,.6,.19,.81c.13,.21,.36,.42,.7,.63,.34,.21,.61,.37,.8,.5,.19,.13,.42,.3,.69,.53,.55,.48,.82,1.1,.82,1.85s-.28,1.36-.85,1.83c-.57,.47-1.2,.7-1.91,.7s-1.34-.19-1.91-.57c-.57-.38-1.02-.86-1.37-1.43l1.08-1.22c.53,.92,1.09,1.38,1.68,1.38,.2,0,.37-.06,.52-.17,.15-.11,.22-.27,.22-.47,0-.43-.31-.82-.92-1.18-.65-.36-1.17-.76-1.54-1.2-.37-.44-.56-1.06-.56-1.87s.33-1.53,1-2.18c.67-.65,1.38-.97,2.15-.97s1.37,.26,1.82,.79c.45,.53,.67,1.24,.67,2.13,0,.36-.04,.75-.12,1.16l-1.82-.16c.04-.31,.06-.56,.06-.76Z"/></g></svg>